<?xml version="1.0" encoding="UTF-8"?>
<svg width="49px" height="49px" viewBox="0 0 49 49" version="1.1" xmlns="http://www.w3.org/2000/svg" xmlns:xlink="http://www.w3.org/1999/xlink">
    <!-- Generator: Sketch 57.1 (83088) - https://sketch.com -->
    <title>github</title>
    <desc>Created with Sketch.</desc>
    <g id="Page-1" stroke="none" stroke-width="1" fill="none" fill-rule="evenodd">
        <g id="Artboard" transform="translate(-320.000000, -187.000000)">
            <g id="github" transform="translate(320.000000, 187.000000)">
                <circle id="Oval" stroke="#FFFFFF" fill="#FFFFFF" cx="24.5" cy="24.5" r="24"></circle>
                <path d="M24.5002028,0 C10.970888,0 0,11.0169476 0,24.6076131 C0,35.4799011 7.02005382,44.7038849 16.7547339,47.9577067 C17.9791762,48.1854946 18.4287062,47.4238924 18.4287062,46.7739431 C18.4287062,46.187155 18.4059864,44.2487166 18.3954378,42.1925131 C11.5794577,43.6810806 10.1412047,39.2891342 10.1412047,39.2891342 C9.02671083,36.4448416 7.42089837,35.6885369 7.42089837,35.6885369 C5.19799628,34.1612577 7.58845788,34.1926346 7.58845788,34.1926346 C10.0487021,34.3662261 11.3441441,36.7284559 11.3441441,36.7284559 C13.5293149,40.4904199 17.075653,39.4028245 18.4737404,38.7740647 C18.693637,37.1836243 19.328578,36.0980661 20.0292445,35.4835686 C14.5874145,34.8613286 8.86685984,32.7513362 8.86685984,23.3223841 C8.86685984,20.6357909 9.82393707,18.4406327 11.3912068,16.7173499 C11.1368247,16.097555 10.2982157,13.5947405 11.6285489,10.2052239 C11.6285489,10.2052239 13.6859201,9.54386481 18.3678493,12.727598 C20.3221694,12.182374 22.4180832,11.908947 24.5002028,11.8995747 C26.5823226,11.908947 28.6798593,12.182374 30.6378307,12.727598 C35.3140799,9.54386481 37.368611,10.2052239 37.368611,10.2052239 C38.70219,13.5947405 37.8631753,16.097555 37.6087932,16.7173499 C39.1797143,18.4406327 40.1303001,20.6357909 40.1303001,23.3223841 C40.1303001,32.7737483 34.3987911,34.8548088 28.9431671,35.464009 C29.8219417,36.2276485 30.6049679,37.7251808 30.6049679,40.0209895 C30.6049679,43.3135229 30.576568,45.9634419 30.576568,46.7739431 C30.576568,47.4287823 31.0175781,48.1960894 32.2594659,47.9544468 C41.9888719,44.6969575 49,35.4762337 49,24.6076131 C49,11.0169476 38.0307348,0 24.5002028,0" id="Fill-4" fill="#161514" fill-rule="nonzero"></path>
                <path d="M10.1608595,35.1623051 C10.1080992,35.2833471 9.92085952,35.3196598 9.75028096,35.2365442 C9.57652896,35.15706 9.47894216,34.9920394 9.53527272,34.8705938 C9.58684296,34.7459205 9.77447936,34.7112218 9.94783472,34.7947408 C10.1219834,34.8742251 10.221157,35.0408596 10.1608595,35.1623051" id="Fill-5" fill="#161514" fill-rule="nonzero"></path>
                <path d="M11.1311735,36.2629806 C11.0169256,36.370708 10.7935868,36.3206773 10.6420496,36.1504115 C10.4853554,35.9805492 10.456,35.7533937 10.5718347,35.6440524 C10.6896529,35.536325 10.9062479,35.5867591 11.0633389,35.7566215 C11.220033,35.9285012 11.2505785,36.1540428 11.1311735,36.2629806" id="Fill-6" fill="#161514" fill-rule="nonzero"></path>
                <path d="M12.0757025,37.6662612 C11.9289256,37.7699539 11.6889256,37.6727168 11.540562,37.4560515 C11.3937851,37.2393863 11.3937851,36.9795494 11.5437355,36.8754533 C11.6924958,36.7713572 11.9289256,36.8649629 12.0792727,37.0800143 C12.2256529,37.3003108 12.2256529,37.5601477 12.0757025,37.6662612" id="Fill-7" fill="#161514" fill-rule="nonzero"></path>
                <path d="M13.369719,39.0219319 C13.2384132,39.1691997 12.9587438,39.1296592 12.7540496,38.9287295 C12.544595,38.7322379 12.486281,38.4534378 12.6179834,38.30617 C12.750876,38.1584987 13.0321322,38.2000565 13.2384132,38.3993723 C13.446281,38.5954605 13.5097521,38.876278 13.369719,39.0219319" id="Fill-8" fill="#161514" fill-rule="nonzero"></path>
                <path d="M15.154843,39.8091085 C15.0969256,39.9999515 14.8275702,40.0866982 14.5562314,40.0056001 C14.2852893,39.9220811 14.107967,39.6985568 14.1627107,39.5056965 C14.2190414,39.3136431 14.4895868,39.2232651 14.7629091,39.3100119 C15.0334546,39.3931274 15.2111735,39.6150378 15.154843,39.8091085" id="Fill-9" fill="#161514" fill-rule="nonzero"></path>
                <path d="M17.1153058,39.9551659 C17.1220496,40.1560956 16.891967,40.3227301 16.6071405,40.3263615 C16.3207273,40.332817 16.0890578,40.1702172 16.0858843,39.9725152 C16.0858843,39.7695681 16.3108099,39.6045475 16.5972231,39.5997058 C16.8820496,39.5940572 17.1153058,39.7554465 17.1153058,39.9551659" id="Fill-10" fill="#161514" fill-rule="nonzero"></path>
                <path d="M18.9397025,39.6392462 C18.9738182,39.8353343 18.7758678,40.0366676 18.4930248,40.0903295 C18.2149422,40.1419741 17.9574876,40.020932 17.9221818,39.8264579 C17.8876694,39.6255281 18.0891901,39.4241949 18.366876,39.3721468 C18.6501157,39.3221161 18.9036033,39.4399303 18.9397025,39.6392462" id="Fill-11" fill="#161514" fill-rule="nonzero"></path>
            </g>
        </g>
    </g>
</svg>