<?xml version="1.0" encoding="UTF-8"?>
<svg width="102px" height="40px" viewBox="0 0 102 40" version="1.1" xmlns="http://www.w3.org/2000/svg" xmlns:xlink="http://www.w3.org/1999/xlink">
    <!-- Generator: Sketch 57.1 (83088) - https://sketch.com -->
    <title>Group 2</title>
    <desc>Created with Sketch.</desc>
    <g id="Page-1" stroke="none" stroke-width="1" fill="none" fill-rule="evenodd">
        <g id="Artboard" transform="translate(-123.000000, -69.000000)">
            <g id="Group-2" transform="translate(123.000000, 69.000000)">
                <g id="Unofficial_JavaScript_logo_2" fill="#FFFFFF" fill-rule="nonzero">
                    <path d="M34.7068089,27.9928084 C36.4184108,30.8043014 38.6452468,32.8708572 42.5836846,32.8708572 C45.8922421,32.8708572 48.0057805,31.2073001 48.0057805,28.9087147 C48.0057805,26.1542115 45.8342446,25.1786017 42.1925384,23.576105 L40.1963438,22.7144747 C34.4343554,20.2449201 30.6065175,17.1511924 30.6065175,10.6109434 C30.6065175,4.58631568 35.1694405,0 42.3004408,0 C47.377249,0 51.0270479,1.77753655 53.657169,6.43169714 L47.4392929,10.4481156 C46.0702811,7.97856101 44.5933669,7.00566505 42.3004408,7.00566505 C39.9616561,7.00566505 38.4793468,8.49825299 38.4793468,10.4481156 C38.4793468,12.8579667 39.9630049,13.8335764 43.3889063,15.3261644 L45.3851008,16.1864378 C52.1694646,19.1132671 56,22.0970861 56,28.8055904 C56,36.0378575 50.3526578,40 42.7684674,40 C35.3528746,40 30.5620078,36.4449269 28.217828,31.7853387 L34.7068089,27.9928084 Z M6.49977119,28.6888972 C7.75413666,30.9277791 8.89520461,32.820652 11.6386233,32.820652 C14.2620005,32.820652 15.9169537,31.7880525 15.9169537,27.7729909 L15.9169537,0.458631568 L23.9017317,0.458631568 L23.9017317,27.8815428 C23.9017317,36.1993283 19.0542161,39.9850741 11.9785159,39.9850741 C5.5852983,39.9850741 1.88289699,36.656603 0,32.6476475 L6.49977119,28.6888972 Z" id="Shape"></path>
                </g>
                <g id="Group" transform="translate(60.000000, 0.000000)">
                    <path d="M11.5374834,1.5 C8.10625565,1.5 6.73139648,1.76549755 5.31159262,2.52481696 C4.10632867,3.16939918 3.16939918,4.10632867 2.52481696,5.31159262 C1.76549755,6.73139648 1.5,8.10625565 1.5,11.5374834 L1.5,28.4625166 C1.5,31.8937444 1.76549755,33.2686035 2.52481696,34.6884074 C3.16939918,35.8936713 4.10632867,36.8306008 5.31159262,37.475183 C6.73139648,38.2345024 8.10625565,38.5 11.5374834,38.5 L30.4625166,38.5 C33.8937444,38.5 35.2686035,38.2345024 36.6884074,37.475183 C37.8936713,36.8306008 38.8306008,35.8936713 39.475183,34.6884074 C40.2345024,33.2686035 40.5,31.8937444 40.5,28.4625166 L40.5,11.5374834 C40.5,8.10625565 40.2345024,6.73139648 39.475183,5.31159262 C38.8306008,4.10632867 37.8936713,3.16939918 36.6884074,2.52481696 C35.2686035,1.76549755 33.8937444,1.5 30.4625166,1.5 L11.5374834,1.5 Z" id="Rectangle" stroke="#429E9D" stroke-width="3" fill="#FFFFFF"></path>
                    <path d="M12.923,15.739 C13.4690027,15.739 13.9729977,15.8304991 14.435,16.0135 C14.8970023,16.1965009 15.2959983,16.4604983 15.632,16.8055 C15.9680017,17.1505017 16.2304991,17.5764975 16.4195,18.0835 C16.6085009,18.5905025 16.703,19.1679968 16.703,19.816 C16.703,20.0680013 16.6760003,20.2359996 16.622,20.32 C16.5679997,20.4040004 16.4660007,20.446 16.316,20.446 L10.25,20.446 C10.2620001,21.0220029 10.3399993,21.5229979 10.484,21.949 C10.6280007,22.3750021 10.8259987,22.7304986 11.078,23.0155 C11.3300013,23.3005014 11.6299983,23.5134993 11.978,23.6545 C12.3260017,23.7955007 12.7159978,23.866 13.148,23.866 C13.550002,23.866 13.8964985,23.8195005 14.1875,23.7265 C14.4785015,23.6334995 14.728999,23.5330005 14.939,23.425 C15.1490011,23.3169995 15.3244993,23.2165005 15.4655,23.1235 C15.6065007,23.0304995 15.7279995,22.984 15.83,22.984 C15.9620007,22.984 16.0639996,23.0349995 16.136,23.137 L16.586,23.722 C16.387999,23.9620012 16.1510014,24.1704991 15.875,24.3475 C15.5989986,24.5245009 15.3035016,24.6699994 14.9885,24.784 C14.6734984,24.8980006 14.3480017,24.9834997 14.012,25.0405 C13.6759983,25.0975003 13.3430017,25.126 13.013,25.126 C12.3829969,25.126 11.8025027,25.0195011 11.2715,24.8065 C10.7404973,24.5934989 10.2815019,24.2815021 9.8945,23.8705 C9.50749807,23.4594979 9.20600108,22.951003 8.99,22.345 C8.77399892,21.739 8.666,21.0430039 8.666,20.257 C8.666,19.6209968 8.76349902,19.0270028 8.9585,18.475 C9.15350098,17.9229972 9.43399817,17.444502 9.8,17.0395 C10.166,16.634498 10.6129974,16.3165012 11.141,16.0855 C11.6690026,15.8544988 12.2629967,15.739 12.923,15.739 Z M12.959,16.918 C12.1849961,16.918 11.5760022,17.1414978 11.132,17.5885 C10.6879978,18.0355022 10.4120005,18.654996 10.304,19.447 L15.263,19.447 C15.263,19.0749981 15.2120005,18.7345015 15.11,18.4255 C15.0079995,18.1164985 14.858001,17.8495011 14.66,17.6245 C14.461999,17.3994989 14.2205014,17.2255006 13.9355,17.1025 C13.6504986,16.9794994 13.3250018,16.918 12.959,16.918 Z M23.966,17.386 C23.8939996,17.5180007 23.7830007,17.584 23.633,17.584 C23.5429996,17.584 23.4410006,17.5510003 23.327,17.485 C23.2129994,17.4189997 23.0735008,17.3455004 22.9085,17.2645 C22.7434992,17.1834996 22.5470011,17.1085003 22.319,17.0395 C22.0909989,16.9704997 21.8210016,16.936 21.509,16.936 C21.2389986,16.936 20.9960011,16.9704997 20.78,17.0395 C20.5639989,17.1085003 20.3795008,17.2029994 20.2265,17.323 C20.0734992,17.4430006 19.9565004,17.5824992 19.8755,17.7415 C19.7944996,17.9005008 19.754,18.0729991 19.754,18.259 C19.754,18.4930012 19.8214993,18.6879992 19.9565,18.844 C20.0915007,19.0000008 20.2699989,19.1349994 20.492,19.249 C20.7140011,19.3630006 20.9659986,19.4634996 21.248,19.5505 C21.5300014,19.6375004 21.8194985,19.7304995 22.1165,19.8295 C22.4135015,19.9285005 22.7029986,20.0379994 22.985,20.158 C23.2670014,20.2780006 23.5189989,20.4279991 23.741,20.608 C23.9630011,20.7880009 24.1414993,21.0084987 24.2765,21.2695 C24.4115007,21.5305013 24.479,21.8439982 24.479,22.21 C24.479,22.6300021 24.4040008,23.0184982 24.254,23.3755 C24.1039993,23.7325018 23.8820015,24.0414987 23.588,24.3025 C23.2939985,24.5635013 22.9340021,24.7689993 22.508,24.919 C22.0819979,25.0690008 21.5900028,25.144 21.032,25.144 C20.3959968,25.144 19.8200026,25.040501 19.304,24.8335 C18.7879974,24.626499 18.3500018,24.3610016 17.99,24.037 L18.368,23.425 C18.4160002,23.3469996 18.4729997,23.2870002 18.539,23.245 C18.6050003,23.2029998 18.6919995,23.182 18.8,23.182 C18.9080005,23.182 19.0219994,23.2239996 19.142,23.308 C19.2620006,23.3920004 19.4074991,23.4849995 19.5785,23.587 C19.7495009,23.6890005 19.9564988,23.7819996 20.1995,23.866 C20.4425012,23.9500004 20.7469982,23.992 21.113,23.992 C21.4250016,23.992 21.6979988,23.9515004 21.932,23.8705 C22.1660012,23.7894996 22.3609992,23.6800007 22.517,23.542 C22.6730008,23.4039993 22.7884996,23.2450009 22.8635,23.065 C22.9385004,22.8849991 22.976,22.693001 22.976,22.489 C22.976,22.2369987 22.9085007,22.0285008 22.7735,21.8635 C22.6384993,21.6984992 22.4600011,21.5575006 22.238,21.4405 C22.0159989,21.3234994 21.7625014,21.2215004 21.4775,21.1345 C21.1924986,21.0474996 20.9015015,20.9560005 20.6045,20.86 C20.3074985,20.7639995 20.0165014,20.6545006 19.7315,20.5315 C19.4464986,20.4084994 19.1930011,20.2540009 18.971,20.068 C18.7489989,19.8819991 18.5705007,19.6525014 18.4355,19.3795 C18.3004993,19.1064986 18.233,18.7750019 18.233,18.385 C18.233,18.0369983 18.3049993,17.7025016 18.449,17.3815 C18.5930007,17.0604984 18.8029986,16.7785012 19.079,16.5355 C19.3550014,16.2924988 19.693998,16.0990007 20.096,15.955 C20.498002,15.8109993 20.9569974,15.739 21.473,15.739 C22.073003,15.739 22.6114976,15.8334991 23.0885,16.0225 C23.5655024,16.2115009 23.9779983,16.4709984 24.326,16.801 L23.966,17.386 Z M32.777,17.503 C32.7289998,17.5690003 32.6810002,17.6199998 32.633,17.656 C32.5849998,17.6920002 32.5160004,17.71 32.426,17.71 C32.3359995,17.71 32.2385005,17.6725004 32.1335,17.5975 C32.0284995,17.5224996 31.8950008,17.4400004 31.733,17.35 C31.5709992,17.2599995 31.3745012,17.1775004 31.1435,17.1025 C30.9124988,17.0274996 30.6290017,16.99 30.293,16.99 C29.8489978,16.99 29.4560017,17.0694992 29.114,17.2285 C28.7719983,17.3875008 28.4855012,17.6169985 28.2545,17.917 C28.0234988,18.2170015 27.8495006,18.5799979 27.7325,19.006 C27.6154994,19.4320021 27.557,19.9089974 27.557,20.437 C27.557,20.9890028 27.6199994,21.4794979 27.746,21.9085 C27.8720006,22.3375021 28.0489989,22.6974985 28.277,22.9885 C28.5050011,23.2795015 28.7824984,23.5014992 29.1095,23.6545 C29.4365016,23.8075008 29.803998,23.884 30.212,23.884 C30.602002,23.884 30.9229987,23.8375005 31.175,23.7445 C31.4270013,23.6514995 31.6369992,23.5480006 31.805,23.434 C31.9730008,23.3199994 32.1109995,23.2165005 32.219,23.1235 C32.3270005,23.0304995 32.4349995,22.984 32.543,22.984 C32.6810007,22.984 32.7829997,23.0349995 32.849,23.137 L33.299,23.722 C32.902998,24.2080024 32.408003,24.5634989 31.814,24.7885 C31.219997,25.0135011 30.5930033,25.126 29.933,25.126 C29.3629971,25.126 28.8335024,25.0210011 28.3445,24.811 C27.8554976,24.6009989 27.4310018,24.296502 27.071,23.8975 C26.7109982,23.498498 26.427501,23.0080029 26.2205,22.426 C26.013499,21.8439971 25.91,21.1810037 25.91,20.437 C25.91,19.7589966 26.0044991,19.1320029 26.1935,18.556 C26.3825009,17.9799971 26.6584982,17.4835021 27.0215,17.0665 C27.3845018,16.6494979 27.8329973,16.3240012 28.367,16.09 C28.9010027,15.8559988 29.5129966,15.739 30.203,15.739 C30.8390032,15.739 31.4029975,15.842499 31.895,16.0495 C32.3870025,16.256501 32.8219981,16.5489981 33.2,16.927 L32.777,17.503 Z" id="esc" fill="#429E9D" fill-rule="nonzero"></path>
                </g>
            </g>
        </g>
    </g>
</svg>