<?xml version="1.0" encoding="UTF-8"?>
<svg width="40px" height="40px" viewBox="0 0 40 40" version="1.1" xmlns="http://www.w3.org/2000/svg" xmlns:xlink="http://www.w3.org/1999/xlink">
    <!-- Generator: Sketch 57.1 (83088) - https://sketch.com -->
    <title>github-grayscale-dark-mode</title>
    <desc>Created with Sketch.</desc>
    <g id="Page-1" stroke="none" stroke-width="1" fill="none" fill-rule="evenodd">
        <g id="Homepage-Dark-Mode" transform="translate(-201.000000, -392.000000)" fill-rule="nonzero">
            <g id="github-grayscale-dark-mode" transform="translate(201.000000, 392.000000)">
                <ellipse id="Oval" fill="#17171D" cx="20" cy="20.4878049" rx="20" ry="19.5121951"></ellipse>
                <g id="github-logo" transform="translate(0.000000, -0.000000)" fill="#FFFFFF">
                    <path d="M37.3171344,10.1218969 C35.5286789,7.00806598 33.1027532,4.5428417 30.0387188,2.72566795 C26.9742285,0.90840151 23.6287185,0 19.9998176,0 C16.3713727,0 13.0247682,0.908679562 9.96091632,2.72566795 C6.89660835,4.54274901 4.47077386,7.00806598 2.68231839,10.1218969 C0.894136533,13.2356352 0,16.6358615 0,20.3224831 C0,24.750952 1.27147437,28.7331447 3.81506158,32.2700808 C6.35837519,35.807295 9.64395982,38.2549092 13.6715419,39.6132014 C14.1403638,39.7016226 14.4874198,39.6394313 14.7130746,39.4282031 C14.9388206,39.216697 15.0515567,38.9518045 15.0515567,38.6346379 C15.0515567,38.5817148 15.0470874,38.1055941 15.0384224,37.2057197 C15.0294838,36.3058452 15.0252881,35.520807 15.0252881,34.8509753 L14.4263088,34.956265 C14.0444104,35.0273541 13.5626365,35.0574765 12.9809872,35.0489496 C12.3996114,35.0407009 11.7960716,34.9787875 11.1711884,34.863673 C10.5460316,34.7495785 9.96456474,34.484964 9.42633154,34.0703859 C8.88837204,33.6558078 8.50647365,33.1131397 8.28072768,32.4432155 L8.02032168,31.8342779 C7.84674811,31.4288755 7.57348147,30.9785212 7.20015688,30.4848832 C6.82683232,29.9907817 6.44931204,29.6558197 6.06741368,29.4794409 L5.88508389,29.3468093 C5.76359151,29.2586663 5.65085533,29.152357 5.54660172,29.0289939 C5.44243933,28.9056307 5.36445435,28.7821749 5.31237316,28.6585336 C5.26020074,28.5347998 5.30343453,28.4333101 5.44253056,28.3536941 C5.58162656,28.2740781 5.8330027,28.2354286 6.19775347,28.2354286 L6.71838302,28.3144885 C7.0656214,28.3852069 7.49513165,28.596435 8.00746102,28.9494705 C8.51951677,29.302228 8.94045323,29.7608313 9.27036161,30.325095 C9.66986358,31.0485907 10.1511814,31.5998786 10.7156832,31.9792366 C11.2797289,32.3585945 11.8484264,32.5479491 12.4212283,32.5479491 C12.9940303,32.5479491 13.488756,32.5038312 13.905588,32.416059 C14.3219639,32.3278232 14.7126185,32.1951916 15.0773693,32.0189056 C15.2336129,30.8364358 15.6590187,29.9280343 16.3532218,29.2930522 C15.3637703,29.1873918 14.4741943,29.0282524 13.6840377,28.8166535 C12.8943372,28.6047766 12.0782768,28.2609168 11.2364039,27.7841474 C10.394075,27.3080267 9.69531133,26.7167918 9.1399306,26.0114622 C8.58445863,25.3057619 8.12858856,24.3792869 7.77295881,23.2328714 C7.41714667,22.0859925 7.23919498,20.7630129 7.23919498,19.2635618 C7.23919498,17.1285727 7.92509793,15.3117696 9.29663025,13.8121333 C8.65414347,12.2070218 8.71479846,10.4076435 9.47877761,8.41418365 C9.98225954,8.25522963 10.7289087,8.37451468 11.7183602,8.77129732 C12.7079941,9.16826536 13.4325704,9.50832504 13.8928185,9.79027155 C14.3530667,10.0721253 14.7218308,10.3109735 14.999658,10.5046842 C16.6145399,10.0461736 18.2810469,9.816872 19.9996352,9.816872 C21.7182234,9.816872 23.3850953,10.0461736 25.0000684,10.5046842 L25.9896111,9.86988758 C26.6663018,9.4463191 27.465397,9.05815607 28.3849813,8.70530591 C29.3051128,8.35264111 30.0087106,8.25550769 30.495045,8.4144617 C31.2759893,10.4080142 31.3455829,12.2072999 30.7029137,13.8124113 C32.0743548,15.3120477 32.7605314,17.1293142 32.7605314,19.2638399 C32.7605314,20.7632909 32.5819412,22.0904413 32.2266764,23.2461253 C31.8709554,24.4019946 31.4111633,25.3275427 30.8471175,26.0247161 C30.2824333,26.7217968 29.5792004,27.3083975 28.7373274,27.7844254 C27.8952721,28.2608241 27.0789381,28.6046839 26.2892376,28.8165608 C25.4991723,29.0284378 24.6095962,29.1876699 23.6201447,29.2935157 C24.5225814,30.087081 24.973891,31.339713 24.973891,33.0508556 L24.973891,38.6338963 C24.973891,38.951063 25.0824315,39.2158626 25.2996949,39.4274616 C25.5166847,39.6386897 25.8593625,39.700881 26.3281845,39.6123673 C30.3563138,38.2542602 33.6418985,35.8065534 36.1851207,32.2693393 C38.7280695,28.7324033 40,24.7502105 40,20.3217416 C39.9990881,16.6355834 39.1044954,13.2356352 37.3171344,10.1218969 Z" id="Path"></path>
                </g>
            </g>
        </g>
    </g>
</svg>