<?xml version="1.0" encoding="UTF-8"?>
<svg width="40px" height="40px" viewBox="0 0 40 40" version="1.1" xmlns="http://www.w3.org/2000/svg" xmlns:xlink="http://www.w3.org/1999/xlink">
    <!-- Generator: Sketch 57.1 (83088) - https://sketch.com -->
    <title>linkedin-grayscale-dark-mode</title>
    <desc>Created with Sketch.</desc>
    <g id="Page-1" stroke="none" stroke-width="1" fill="none" fill-rule="evenodd">
        <g id="Homepage-Dark-Mode" transform="translate(-266.000000, -392.000000)" fill-rule="nonzero">
            <g id="linkedin-grayscale-dark-mode" transform="translate(266.000000, 392.000000)">
                <circle id="Oval" fill="#FFFFFF" cx="20" cy="20" r="20"></circle>
                <path d="M31.5384615,21.6096868 L31.5384615,29.8039216 L26.7561528,29.8039216 L26.7561528,22.1588508 C26.7561528,20.239257 26.06568,18.9283495 24.3341483,18.9283495 C23.0127631,18.9283495 22.2277783,19.8109091 21.8811153,20.6654791 C21.7552181,20.9708851 21.7227631,21.3949814 21.7227631,21.8233293 L21.7227631,29.8035673 L16.9400977,29.8035673 C16.9400977,29.8035673 17.0042946,16.8553442 16.9400977,15.5150298 L21.7231197,15.5150298 L21.7231197,17.5398505 C21.7134902,17.5557939 21.6999376,17.5713831 21.691378,17.586618 L21.7231197,17.586618 L21.7231197,17.5398505 C22.3586686,16.5683617 23.4920996,15.1795084 26.033225,15.1795084 C29.179584,15.1795084 31.5384615,17.2216897 31.5384615,21.6096868 L31.5384615,21.6096868 Z M11.9370232,8.62745098 C10.3010734,8.62745098 9.23076923,9.69424624 9.23076923,11.0958544 C9.23076923,12.4677014 10.2700449,13.5653207 11.8742529,13.5653207 L11.9052814,13.5653207 C13.5733295,13.5653207 14.6104653,12.4677014 14.6104653,11.0958544 C14.5787235,9.69424624 13.5733295,8.62745098 11.9370232,8.62745098 L11.9370232,8.62745098 Z M9.51501862,29.8039216 L14.2959007,29.8039216 L14.2959007,15.5150298 L9.51501862,15.5150298 L9.51501862,29.8039216 Z" id="Shape" fill="#17171D"></path>
            </g>
        </g>
    </g>
</svg>