<?xml version="1.0" encoding="UTF-8"?>
<svg width="40px" height="40px" viewBox="0 0 40 40" version="1.1" xmlns="http://www.w3.org/2000/svg" xmlns:xlink="http://www.w3.org/1999/xlink">
    <!-- Generator: Sketch 57.1 (83088) - https://sketch.com -->
    <title>medium-grayscale-dark-mode</title>
    <desc>Created with Sketch.</desc>
    <g id="Page-1" stroke="none" stroke-width="1" fill="none" fill-rule="evenodd">
        <g id="Homepage-Dark-Mode" transform="translate(-331.000000, -392.000000)" fill-rule="nonzero">
            <g id="medium-grayscale-dark-mode" transform="translate(331.000000, 392.000000)">
                <circle id="Oval" fill="#FFFFFF" cx="20" cy="20" r="20"></circle>
                <g id="medium" transform="translate(7.368421, 9.473684)" fill="#17171D">
                    <path d="M25.6140351,0.429510618 L25.6140351,0 L18.5338889,0 L13.487924,12.6046907 L7.74717835,0 L0.323377193,0 L0.323377193,0.429510618 L2.71081871,3.31397969 C2.94347953,3.52712835 3.0651462,3.83881811 3.03419591,4.15265004 L3.03419591,15.4880886 C3.10783626,15.8961773 2.97549708,16.316048 2.68947368,16.6127424 L0,19.8838781 L0,20.3080332 L7.62551168,20.3080332 L7.62551168,19.8785226 L4.936038,16.6127424 C4.64467835,16.3149769 4.50700291,15.9026039 4.56570175,15.4880886 L4.56570175,5.68325025 L11.2595029,20.3133887 L12.0375292,20.3133887 L17.7932164,5.68325025 L17.7932164,17.3378763 C17.7932164,17.6452816 17.7932164,17.7084765 17.5925731,17.909843 L15.5221053,19.9202955 L15.5221053,20.3508772 L25.567076,20.3508772 L25.567076,19.9213666 L23.5713158,17.9601847 C23.3962866,17.8273684 23.3055702,17.6045799 23.342924,17.3882179 L23.342924,2.96373038 C23.3055702,2.74629732 23.3952193,2.52350877 23.5702485,2.39176362 L25.6140351,0.429510618 Z" id="Path"></path>
                </g>
            </g>
        </g>
    </g>
</svg>