<?xml version="1.0" encoding="UTF-8"?>
<svg width="40px" height="40px" viewBox="0 0 40 40" version="1.1" xmlns="http://www.w3.org/2000/svg" xmlns:xlink="http://www.w3.org/1999/xlink">
    <!-- Generator: Sketch 57.1 (83088) - https://sketch.com -->
    <title>spotify-grayscale-dark-mode</title>
    <desc>Created with Sketch.</desc>
    <g id="Page-1" stroke="none" stroke-width="1" fill="none" fill-rule="evenodd">
        <g id="Homepage-Dark-Mode" transform="translate(-396.000000, -392.000000)" fill-rule="nonzero">
            <g id="spotify-grayscale-dark-mode" transform="translate(396.000000, 392.000000)">
                <circle id="Oval" fill="#17171D" cx="20" cy="20" r="20"></circle>
                <g id="spotify" fill="#FFFFFF">
                    <path d="M20,0 C8.95428993,0 0,8.95428993 0,20 C0,31.0457101 8.95428993,40 20,40 C31.0457101,40 40,31.0457101 40,20 C40,8.95428993 31.0457101,0 20,0 Z M28.7042736,29.0254693 C28.4499546,29.4605894 27.9922928,29.7032166 27.5221909,29.7033102 C27.2877947,29.7033102 27.0504055,29.6429807 26.8334066,29.5162422 C23.2393628,27.4158428 19.0873888,27.0782786 16.2364726,27.1649846 C13.0784844,27.261044 10.7625827,27.8844481 10.7395733,27.8908084 C10.0115982,28.0896617 9.25930428,27.661276 9.05960923,26.9333945 C8.86000768,26.2056064 9.28689681,25.4537802 10.0144978,25.2533368 C10.1188817,25.2246219 12.6110015,24.5477164 16.0765295,24.4334178 C18.1178154,24.3660733 20.0829647,24.5083386 21.9166051,24.8561915 C24.2390542,25.2967366 26.3575992,26.0700757 28.2135007,27.1546959 C28.8657132,27.5357534 29.0853311,28.3734438 28.7042736,29.0254693 Z M31.2469017,23.7446335 C30.9457222,24.2600993 30.4035992,24.5474358 29.8466978,24.5475293 C29.5690889,24.5475293 29.2878322,24.4761629 29.0308007,24.3259473 C24.7736945,21.837943 19.8553965,21.4382722 16.4785386,21.540879 C12.73774,21.6547099 9.99448151,22.3931608 9.96726309,22.4006435 C9.10516028,22.6358815 8.21387484,22.1288337 7.97732737,21.2666374 C7.7408734,20.404441 8.24661172,19.5139974 9.10843396,19.2765146 C9.23208589,19.2424682 12.1840188,18.4406012 16.2890387,18.3052575 C18.7071731,18.2255666 21.0348601,18.3940213 23.206813,18.8060386 C25.9578349,19.3279582 28.4672584,20.2439367 30.6655879,21.5286261 C31.4381787,21.9800211 31.6983903,22.9722298 31.2469017,23.7446335 Z M32.8099483,18.9430659 C32.469391,18.9430659 32.1244376,18.855518 31.8091345,18.6712561 C21.6881015,12.7563533 8.55920235,16.2727638 8.42778709,16.309055 C7.36963698,16.6006005 6.27575691,15.9791606 5.98430498,14.9211041 C5.69275954,13.8630475 6.3141994,12.7690739 7.37225593,12.477622 C7.52387456,12.4358123 11.1447626,11.4523024 16.1799781,11.2862795 C19.1462217,11.18863 22.0012534,11.3951531 24.6653821,11.9005172 C28.0398081,12.5406639 31.1180118,13.6641942 33.8144099,15.240055 C34.7619092,15.7937762 35.0811407,17.0107471 34.5274195,17.9582464 C34.1579602,18.5905362 33.4930271,18.9430659 32.8099483,18.9430659 Z" id="Shape"></path>
                </g>
            </g>
        </g>
    </g>
</svg>