<?xml version="1.0" encoding="UTF-8"?>
<svg width="19px" height="19px" viewBox="0 0 19 19" version="1.1" xmlns="http://www.w3.org/2000/svg" xmlns:xlink="http://www.w3.org/1999/xlink">
    <!-- Generator: Sketch 57.1 (83088) - https://sketch.com -->
    <title>close</title>
    <desc>Created with Sketch.</desc>
    <g id="Page-1" stroke="none" stroke-width="1" fill="none" fill-rule="evenodd">
        <g id="Homepage-Light-Mode" transform="translate(-435.000000, -25.000000)" fill="#979797" fill-rule="nonzero">
            <g id="close" transform="translate(435.000000, 25.000000)">
                <path d="M11.2158025,9.48673057 L18.5976444,2.10466385 C19.0780422,1.62449102 19.0780422,0.848117912 18.5976444,0.367945076 C18.1174716,-0.112227761 17.3410985,-0.112227761 16.8609256,0.367945076 L9.47885887,7.75001185 L2.09701705,0.367945076 C1.61661932,-0.112227761 0.840471103,-0.112227761 0.360298267,0.367945076 C-0.120099461,0.848117912 -0.120099461,1.62449102 0.360298267,2.10466385 L7.74214015,9.48673057 L0.360298267,16.8687973 C-0.120099461,17.3489702 -0.120099461,18.1253433 0.360298267,18.6055161 C0.599597509,18.8450403 0.914240042,18.9653646 1.22865768,18.9653646 C1.54307527,18.9653646 1.85749291,18.8450403 2.09701705,18.6055161 L9.47885887,11.2234494 L16.8609256,18.6055161 C17.1004498,18.8450403 17.4148674,18.9653646 17.7292851,18.9653646 C18.0437027,18.9653646 18.3581202,18.8450403 18.5976444,18.6055161 C19.0780422,18.1253433 19.0780422,17.3489702 18.5976444,16.8687973 L11.2158025,9.48673057 Z" id="Path"></path>
            </g>
        </g>
    </g>
</svg>