<?xml version="1.0" encoding="UTF-8"?>
<svg width="374px" height="288px" viewBox="0 0 374 288" version="1.1" xmlns="http://www.w3.org/2000/svg" xmlns:xlink="http://www.w3.org/1999/xlink">
    <!-- Generator: Sketch 57.1 (83088) - https://sketch.com -->
    <title>fast-food</title>
    <desc>Created with Sketch.</desc>
    <g id="Page-1" stroke="none" stroke-width="1" fill="none" fill-rule="evenodd">
        <g id="Artboard" transform="translate(-47.000000, -47.000000)" fill-rule="nonzero">
            <g id="fast-food" transform="translate(47.000000, 47.000000)">
                <polygon id="Path" fill="#E80054" points="82.212 133.877 289.16 133.877 289.16 161.212 82.212 161.212"></polygon>
                <path d="M333.0365,237 L203.813475,237 C192.632825,243.328 184.8605,244.309667 180.4965,239.945 L177.5515,237 L177,287.582 L291.4375,287.582 C312.4395,287.582 331.3805,278.785 344.7885,264.676 C354.7145,254.23 347.4465,237 333.0365,237 Z" id="Path" fill="#FCAD6D"></path>
                <path d="M188.0365,237 L62.1315,237 L59.1865,239.945 C52.6405,246.492 42.0425,246.492 35.4965,239.945 L32.5515,237 L32,287.582 L146.4375,287.582 C167.4395,287.582 186.3805,278.785 199.7885,264.676 C209.7145,254.23 202.4465,237 188.0365,237 Z" id="Path" fill="#FD995B" transform="translate(118.182488, 262.291000) scale(-1, 1) translate(-118.182488, -262.291000) "></path>
                <path d="M122.005,187.396 C114.514,179.905 105.246,174.611 95.196,171.888 L51.538,171.888 C45.123,171.888 39.875,177.136 39.875,183.551 C39.875,189.966 45.123,195.214 51.538,195.214 L126.223,195.214 C127.316,195.214 128.37,195.051 129.375,194.766 L122.005,187.396 Z" id="Path" fill="#FF9100"></path>
                <path d="M322.247,171.888 L278.589,171.888 C268.539,174.611 259.271,179.905 251.78,187.396 L244.409,194.767 C245.414,195.051 246.468,195.215 247.561,195.215 L322.246,195.215 C328.661,195.215 333.909,189.967 333.909,183.552 C333.91,177.136 328.662,171.888 322.247,171.888 L322.247,171.888 Z" id="Path" fill="#FFB332"></path>
                <path d="M326.587,193 L239.26,193 L195,237.259 L326.586,237.259 C338.757,237.259 348.715,227.301 348.715,215.129 C348.717,202.958 338.758,193 326.587,193 L326.587,193 Z" id="Path" fill="#A05838"></path>
                <path d="M78.4760274,193.106 L31.9999922,193 L34.2160274,237.365 L165.802027,237.365 C177.973027,237.365 187.931035,227.407 187.931035,215.235 C187.933027,203.064 177.974027,193.106 165.803027,193.106 L78.4760274,193.106 Z" id="Path" fill="#823C26" transform="translate(109.965514, 215.182500) rotate(180.000000) translate(-109.965514, -215.182500) "></path>
                <path d="M230.109,135.403 C208.507,135.403 208.495,114.327 186.893,114.327 C165.291,114.327 165.279,135.403 143.677,135.403 C122.807,135.403 122.095,115.734 102.59,114.402 L102.59,137.62 C102.59,144.575 108.28,150.266 115.235,150.266 L254.335,150.266 C261.29,150.266 266.98,144.575 266.98,137.62 L266.98,115.035 C251.466,118.68 249.358,135.403 230.109,135.403 L230.109,135.403 Z" id="Path" fill="#FF7186"></path>
                <path d="M164.598,148.081 C160.623,144.221 160.31,137.89 160.464,134.539 C160.529,133.116 159.939,131.754 158.876,130.807 C158.82,130.757 158.771,130.708 158.716,130.658 C154.904,133.412 150.31,135.403 143.676,135.403 C122.806,135.403 122.094,115.734 102.589,114.402 L102.589,137.62 C102.589,144.575 108.279,150.266 115.234,150.266 L165.792,150.266 C165.615,149.454 165.224,148.689 164.598,148.081 L164.598,148.081 Z" id="Path" fill="#FF4155"></path>
                <path d="M57.274,135.403 C53.739,135.403 50.79,134.831 48.222,133.887 C38.573,143.942 28.672,150.562 20.393,150.209 L20.393,150.265 L89.943,150.265 C96.898,150.265 102.589,144.574 102.589,137.619 L102.589,114.401 C101.906,114.354 101.203,114.326 100.472,114.326 C78.873,114.327 78.873,135.403 57.274,135.403 L57.274,135.403 Z" id="Path" fill="#FF4155"></path>
                <path d="M352.074,150.23 C344.073,150.176 334.705,143.414 325.563,133.887 C322.995,134.831 320.047,135.403 316.511,135.403 C294.912,135.403 294.912,114.327 273.313,114.327 C270.961,114.327 268.877,114.589 266.981,115.034 L266.981,137.619 C266.981,144.574 272.671,150.265 279.626,150.265 L352.074,150.265 L352.074,150.23 Z" id="Path" fill="#FF4155"></path>
                <path d="M28.548,120.101 C23.923,118.547 18.981,117.489 14.071,117.489 C14.071,117.489 0.463,120.362 0.371734901,133.702 C0.277,147.517 25.732,161.689 49.248,135.984 C40.306,132.682 36.071,124.787 28.548,120.101 L28.548,120.101 Z" id="Path" fill="#24B55E"></path>
                <path d="M345.237,120.101 C349.862,118.547 354.805,117.489 359.714,117.489 C359.714,117.489 373.322,120.362 373.413265,133.702 C373.508,147.517 348.053,161.689 324.537,135.984 C333.479,132.682 337.714,124.787 345.237,120.101 Z" id="Path" fill="#24B55E"></path>
                <path d="M330.642,150.265 L43.48,150.265 C37.863,150.265 32.933,154.41 32.385,160 C31.754,166.424 36.841,171.887 43.142,171.887 L79.477,171.887 C95.427,171.887 110.725,178.223 122.004,189.502 L173.929,241.427 C181.088,248.586 192.695,248.586 199.854,241.427 L251.779,189.502 C263.058,178.223 278.356,171.887 294.306,171.887 L330.303,171.887 C335.92,171.887 340.85,167.742 341.398,162.152 C342.03,155.729 336.943,150.265 330.642,150.265 L330.642,150.265 Z" id="Path" fill="#FFDD40"></path>
                <path d="M32.385,160 C31.754,166.424 36.842,171.887 43.143,171.887 L79.478,171.887 C95.428,171.887 110.726,178.223 122.005,189.503 L173.93,241.428 C181.089,248.587 192.696,248.587 199.855,241.428 L228.333,212.95 C204.585,224.702 180.872,188.656 167.914,175.698 C159.125,166.909 162.258,158.343 165.184,153.74 C165.854,152.685 166.047,151.426 165.793,150.264 L43.48,150.264 C37.863,150.265 32.933,154.41 32.385,160 L32.385,160 Z" id="Path" fill="#FFB332"></path>
                <path d="M321.372,99.67 L52.413,99.67 C41.514,111.596 14.071,117.488 14.071,117.488 C35.673,117.488 35.673,138.564 57.274,138.564 C78.873,138.564 78.873,117.488 100.472,117.488 C122.074,117.488 122.074,138.564 143.676,138.564 C165.278,138.564 165.29,117.488 186.892,117.488 C208.494,117.488 208.506,138.564 230.108,138.564 C251.71,138.564 251.71,117.488 273.312,117.488 C294.911,117.488 294.911,138.564 316.51,138.564 C338.112,138.564 338.112,117.488 359.713,117.488 C359.713,117.489 332.27,111.596 321.372,99.67 L321.372,99.67 Z" id="Path" fill="#49D88B"></path>
                <path d="M14.071,117.488 C35.673,117.488 35.673,138.564 57.274,138.564 C78.873,138.564 78.873,117.488 100.472,117.488 C122.074,117.488 122.074,138.564 143.676,138.564 C151.174,138.564 156.069,136.023 160.171,132.708 C159.903,131.988 159.466,131.332 158.876,130.807 C147.02,120.248 152.707,109.604 156.616,104.649 C157.758,103.201 157.889,101.242 157.051,99.67 L52.413,99.67 C41.515,111.596 14.071,117.488 14.071,117.488 L14.071,117.488 Z" id="Path" fill="#38C674"></path>
                <path d="M263.859,0.614 L109.926,0.614 C69.264,0.614 29.978,33.577 29.978,74.239 C29.978,89.449 42.308,101.778 57.517,101.778 L316.268,101.778 C331.478,101.778 343.807,89.449 343.807,74.239 C343.807,33.577 304.521,0.614 263.859,0.614 L263.859,0.614 Z" id="Path" fill="#FCAD6D"></path>
                <path d="M156.48,98.818 C132.485,71.273 156.336,43.814 156.336,43.814 L159.247,22.047 C151.916,14.716 152.902,8.314 154.759,4.46 C155.35,3.234 155.56,1.903 155.431,0.614 L109.926,0.614 C69.264,0.614 29.978,33.577 29.978,74.239 C29.978,89.448 42.308,101.778 57.517,101.778 L157.594,101.778 C157.586,100.718 157.217,99.664 156.48,98.818 L156.48,98.818 Z" id="Path" fill="#FD995B"></path>
                <path d="M256.484,41.499 C253.398,38.413 253.398,33.408 256.485,30.322 L262.447,24.362 C265.534,21.277 270.538,21.276 273.624,24.363 C276.71,27.449 276.71,32.454 273.623,35.54 L267.661,41.5 C264.574,44.585 259.57,44.586 256.484,41.499 Z" id="Path" fill="#FCF0BE"></path>
                <path d="M202.68,41.499 C199.594,38.413 199.594,33.408 202.681,30.322 L208.642,24.362 C211.729,21.277 216.733,21.276 219.82,24.363 C222.906,27.449 222.906,32.454 219.819,35.54 L213.858,41.5 C210.771,44.585 205.768,44.586 202.68,41.499 Z" id="Path" fill="#FCF0BE"></path>
                <path d="M148.877,41.499 C145.791,38.413 145.791,33.408 148.878,30.322 L154.839,24.362 C157.926,21.277 162.93,21.276 166.017,24.363 C169.103,27.449 169.103,32.454 166.016,35.54 L160.055,41.5 C156.968,44.585 151.965,44.586 148.877,41.499 Z" id="Path" fill="#FCF0BE"></path>
                <path d="M95.074,41.499 C91.988,38.413 91.988,33.408 95.075,30.322 L101.036,24.362 C104.123,21.277 109.127,21.276 112.214,24.363 C115.3,27.449 115.3,32.454 112.213,35.54 L106.252,41.5 C103.164,44.585 98.161,44.586 95.074,41.499 L95.074,41.499 Z" id="Path" fill="#FCF0BE"></path>
            </g>
        </g>
    </g>
</svg>