<?xml version="1.0" encoding="UTF-8"?>
<svg width="48px" height="48px" viewBox="0 0 48 48" version="1.1" xmlns="http://www.w3.org/2000/svg" xmlns:xlink="http://www.w3.org/1999/xlink">
    <!-- Generator: Sketch 50.2 (55047) - http://www.bohemiancoding.com/sketch -->
    <title>Github_white</title>
    <desc>Created with Sketch.</desc>
    <defs></defs>
    <g id="Github_white" stroke="none" stroke-width="1" fill="none" fill-rule="evenodd">
        <g id="Github" fill="#FFFFFF" fill-rule="nonzero">
            <path d="M24.0432397,0.179949145 C10.8146777,0.179949145 0.0876694216,11.0878531 0.0876694216,24.5444986 C0.0876694216,35.3095729 6.95166942,44.4425972 16.4699504,47.6643325 C17.6671735,47.8898742 18.1067107,47.1357824 18.1067107,46.4922422 C18.1067107,45.9112405 18.0844958,43.9919174 18.0741818,41.9559906 C11.409719,43.429879 10.003438,39.0812424 10.003438,39.0812424 C8.91371904,36.264998 7.3436033,35.5161513 7.3436033,35.5161513 C5.1701157,34.0039329 7.50743802,34.0350004 7.50743802,34.0350004 C9.91299176,34.2064766 11.1796364,36.5458155 11.1796364,36.5458155 C13.3162314,40.2706821 16.7837355,39.1938116 18.1507438,38.571252 C18.3657521,36.9968987 18.9865785,35.9212386 19.6716694,35.3132042 C14.3508099,34.6971003 8.75742152,32.6079149 8.75742152,23.2719434 C8.75742152,20.6118431 9.69322312,18.4383319 11.2256529,16.7320427 C10.9769256,16.1179562 10.1569586,13.6402259 11.457719,10.284134 C11.457719,10.284134 13.4693554,9.62929668 18.0472066,12.7816345 C19.9580826,12.2417871 22.007405,11.9710564 24.0432397,11.9617765 C26.0790744,11.9710564 28.1299834,12.2417871 30.0444298,12.7816345 C34.6167273,9.62929668 36.6255868,10.284134 36.6255868,10.284134 C37.9295206,13.6402259 37.109157,16.1179562 36.8604298,16.7320427 C38.3964298,18.4383319 39.3258843,20.6118431 39.3258843,23.2719434 C39.3258843,32.6301059 33.7217851,34.6906447 28.387438,35.2938374 C29.2466777,36.0499467 30.0122975,37.5327114 30.0122975,39.8058807 C30.0122975,43.0655425 29.984529,45.6893301 29.984529,46.4922422 C29.984529,47.140624 30.4157355,47.9003644 31.6300166,47.6611047 C41.1431405,44.4357382 47.9984132,35.3059416 47.9984132,24.5444986 C47.9984132,11.0878531 37.2729918,0.179949145 24.0432397,0.179949145" id="Fill-51"></path>
            <path d="M9.16085952,35.1623051 C9.1080992,35.2837506 8.92085952,35.3196598 8.75028096,35.2365442 C8.57652896,35.15706 8.47894216,34.9920394 8.53527272,34.8705938 C8.58684296,34.7459205 8.77447936,34.7116253 8.94783472,34.7943374 C9.12198344,34.8742251 9.22115704,35.0408596 9.16085952,35.1623051" id="Fill-52"></path>
            <path d="M10.1311735,36.2629806 C10.0169256,36.370708 9.7935868,36.3206773 9.6420496,36.1504115 C9.48535536,35.9805492 9.456,35.7533937 9.57183472,35.6440524 C9.68965288,35.536325 9.90624792,35.5867591 10.0633389,35.7566215 C10.220033,35.9285012 10.2505785,36.1540428 10.1311735,36.2629806" id="Fill-53"></path>
            <path d="M11.0757025,37.6662612 C10.9289256,37.7699539 10.6889256,37.6727168 10.540562,37.4560515 C10.3937851,37.2393863 10.3937851,36.9795494 10.5437355,36.8754533 C10.6924958,36.7713572 10.9289256,36.8649629 11.0792727,37.0800143 C11.2256529,37.2999073 11.2256529,37.5601477 11.0757025,37.6662612" id="Fill-54"></path>
            <path d="M12.369719,39.0219319 C12.2384132,39.1691997 11.9587438,39.1296592 11.7540496,38.9287295 C11.544595,38.7322379 11.486281,38.4534378 11.6179834,38.30617 C11.750876,38.1584987 12.0321322,38.2000565 12.2384132,38.3993723 C12.446281,38.5954605 12.5097521,38.876278 12.369719,39.0219319" id="Fill-55"></path>
            <path d="M14.154843,39.8091085 C14.0969256,39.9999515 13.8275702,40.0866982 13.5562314,40.0056001 C13.2852893,39.9220811 13.107967,39.6985568 13.1627107,39.5056965 C13.2190414,39.3136431 13.4895868,39.2232651 13.7629091,39.3100119 C14.0334546,39.3931274 14.2111735,39.6150378 14.154843,39.8091085" id="Fill-56"></path>
            <path d="M16.1153058,39.9551659 C16.1220496,40.1560956 15.891967,40.3227301 15.6071405,40.3259579 C15.3207273,40.332817 15.0890578,40.1702172 15.0858843,39.9725152 C15.0858843,39.7695681 15.3108099,39.6045475 15.5972231,39.5997058 C15.8820496,39.5940572 16.1153058,39.7554465 16.1153058,39.9551659" id="Fill-57"></path>
            <path d="M17.9397025,39.6392462 C17.9738182,39.8353343 17.7758678,40.0366676 17.4930248,40.089926 C17.2149422,40.1419741 16.9574876,40.020932 16.9221818,39.8264579 C16.8876694,39.6255281 17.0891901,39.4241949 17.366876,39.3721468 C17.6501157,39.3221161 17.9036033,39.4399303 17.9397025,39.6392462" id="Fill-58"></path>
        </g>
    </g>
</svg>