<?xml version="1.0" encoding="UTF-8"?>
<svg width="50px" height="50px" viewBox="0 0 50 50" version="1.1" xmlns="http://www.w3.org/2000/svg" xmlns:xlink="http://www.w3.org/1999/xlink">
    <!-- Generator: Sketch 57.1 (83088) - https://sketch.com -->
    <title>moon</title>
    <desc>Created with Sketch.</desc>
    <g id="Page-1" stroke="none" stroke-width="1" fill="none" fill-rule="evenodd">
        <g id="Homepage-Light-Mode" transform="translate(-867.000000, -92.000000)" fill="#17171D" fill-rule="nonzero">
            <g id="moon" transform="translate(867.000000, 92.000000)">
                <path d="M48.7833151,28.4916249 C48.2718255,28.3632167 47.760336,28.4916249 47.3127826,28.8126454 C45.6504416,30.2251357 43.7323558,31.3808096 41.6224615,32.1512589 C39.6404395,32.9217081 37.466609,33.3069328 35.164906,33.3069328 C29.9860744,33.3069328 25.2547961,31.1881973 21.8661779,27.7853797 C18.4775597,24.3825622 16.3676653,19.6314584 16.3676653,14.4309259 C16.3676653,12.2479864 16.7512825,10.1292509 17.3906444,8.20312777 C18.0939426,6.14859642 19.1169216,4.28667738 20.4595817,2.68157476 C21.0350074,1.97532961 20.907135,0.948063932 20.2038369,0.370226988 C19.7562836,0.0492064644 19.244794,-0.0792017452 18.7333045,0.0492064644 C13.2987281,1.52590087 8.56744983,4.80031022 5.17883161,9.16618935 C1.91808578,13.4678644 0,18.7968051 0,24.5751745 C0,31.5734219 2.81319248,37.9296283 7.41659836,42.5523238 C12.0200042,47.1750194 18.2857511,50 25.3187323,50 C31.2008621,50 36.6354384,47.9454686 40.9830996,44.5426511 C45.3946969,41.0756294 48.5915065,36.1319134 49.9341665,30.4819521 C50.1899113,29.5830947 49.6784218,28.6842372 48.7833151,28.4916249 Z" id="Path"></path>
            </g>
        </g>
    </g>
</svg>