<?xml version="1.0" encoding="UTF-8"?>
<svg width="259px" height="260px" viewBox="0 0 259 260" version="1.1" xmlns="http://www.w3.org/2000/svg" xmlns:xlink="http://www.w3.org/1999/xlink">
    <!-- Generator: Sketch 57.1 (83088) - https://sketch.com -->
    <title>moon (2)</title>
    <desc>Created with Sketch.</desc>
    <defs>
        <path d="M77.925178,130.258338 C77.925178,72.2566493 116.220227,23.1630879 168.995798,6.67494511 C156.694891,2.83184417 143.600394,0.758337685 130.025856,0.758337685 C58.2141048,0.758337685 0,58.7370104 0,130.258338 C0,201.779665 58.2141048,259.758338 130.025856,259.758338 C143.600394,259.758338 156.698568,257.683785 169,253.840161 C116.224429,237.352541 77.925178,188.260026 77.925178,130.258338 Z" id="path-1"></path>
    </defs>
    <g id="Page-1" stroke="none" stroke-width="1" fill="none" fill-rule="evenodd">
        <g id="Artboard" transform="translate(-54.000000, -415.000000)">
            <g id="moon-(2)" transform="translate(54.000000, 414.000000)">
                <g id="XMLID_32_" transform="translate(0.000000, 1.000000)" fill="#D6DCD8" fill-rule="nonzero">
                    <circle id="Oval" cx="129.5" cy="129.5" r="129.5"></circle>
                </g>
                <g id="Path" transform="translate(0.000000, 0.241662)">
                    <mask id="mask-2" fill="white">
                        <use xlink:href="#path-1"></use>
                    </mask>
                    <use id="Mask" fill="#BBC2BE" fill-rule="nonzero" xlink:href="#path-1"></use>
                    <path d="M89.9554553,7.75833768 C91.1305171,12.0938802 91.7652609,16.6600924 91.7652609,21.367852 C91.7652609,50.0075966 68.5315597,73.2266024 39.8684439,73.2266024 C31.2653124,73.2266024 23.3949658,71.1970568 16.2501701,67.4958561 L16.559449,66.7152899 C32.6378623,38.5211573 58.1782051,16.8925861 89.7055343,7 L89.9554553,7.75833768 Z" fill="#E6F0EA" fill-rule="nonzero" mask="url(#mask-2)"></path>
                </g>
                <g id="XMLID_222_" transform="translate(34.000000, 66.000000)" fill-rule="nonzero">
                    <g id="Group">
                        <path d="M225,67.1291624 C224.695743,85.9130182 220.122671,103.798295 212.642144,119.829842 C201.37445,110.573006 195.740603,102.119315 195.740603,94.4687684 C195.740603,79.3703858 207.989574,67.1291624 223.097512,67.1291624 C223.506685,67.1291624 224.140848,67.1291624 225,67.1291624 Z" id="Path" fill="#E6F0EA"></path>
                        <path d="M96.501237,174 C107.816453,174 117.239368,181.337653 119.914732,191.817399 C112.292568,193.211902 104.527329,194.346119 96.501237,194.346119 C88.4751449,194.346119 80.4239897,193.407164 72.8018251,192.012661 C75.4771891,181.532915 85.1860209,174 96.501237,174 Z" id="Path" fill="#E6F0EA"></path>
                        <g transform="translate(100.555348, 0.764431)" fill="#F9FEFB">
                            <path d="M25.872344,115.801449 C34.6171123,115.801449 41.7094499,122.889301 41.7094499,131.628539 C41.7094499,140.373018 34.6171123,147.455628 25.872344,147.455628 C17.1223298,147.455628 10.0299922,140.373018 10.0299922,131.628539 C10.0299922,122.889301 17.1223298,115.801449 25.872344,115.801449 Z" id="Path"></path>
                            <ellipse id="Oval" cx="54.587918" cy="90.0293489" rx="11.1998083" ry="11.1927246"></ellipse>
                            <ellipse id="Oval" cx="30.4676752" cy="30.1233703" rx="30.137189" ry="30.1181278"></ellipse>
                        </g>
                        <ellipse id="Oval" fill="#F9FEFB" cx="44.3478997" cy="91.3369276" rx="17.3478997" ry="17.3369276"></ellipse>
                        <path d="M44.3478997,108.673855 C46.7531045,108.673855 49.0935754,108.165435 51.1761627,107.280502 C47.6147811,96.725265 44.352343,74 44.2663116,74 C34.6822134,74 27,81.7641336 27,91.3369276 C27,100.909722 34.7638015,108.673855 44.3478997,108.673855 Z" id="Path" fill="#E6F0EA"></path>
                        <path d="M10.8467193,35.6637136 C16.6957995,35.6637136 21.4380134,40.4029281 21.4380134,46.2430664 C21.4380134,52.0884472 16.6957995,56.8276617 10.8467193,56.8276617 C4.9976391,56.8276617 0.260671008,52.0884472 0.260671008,46.2430664 C0.260671008,40.4029281 4.9976391,35.6637136 10.8467193,35.6637136 L10.8467193,35.6637136 Z" id="Path" fill="#E6F0EA"></path>
                    </g>
                </g>
            </g>
        </g>
    </g>
</svg>