<?xml version="1.0" encoding="UTF-8"?>
<svg width="373px" height="353px" viewBox="0 0 373 353" version="1.1" xmlns="http://www.w3.org/2000/svg" xmlns:xlink="http://www.w3.org/1999/xlink">
    <!-- Generator: Sketch 57.1 (83088) - https://sketch.com -->
    <title>open-burger</title>
    <desc>Created with Sketch.</desc>
    <g id="Page-1" stroke="none" stroke-width="1" fill="none" fill-rule="evenodd">
        <g id="Artboard" transform="translate(-466.000000, -65.000000)" fill-rule="nonzero">
            <g id="open-burger" transform="translate(464.000000, 60.000000)">
                <polygon id="Path" fill="#E80054" transform="translate(185.969012, 184.424224) rotate(4.000000) translate(-185.969012, -184.424224) " points="82.495012 170.756724 289.443012 170.756724 289.443012 198.091724 82.495012 198.091724"></polygon>
                <path d="M332.952831,306.695086 L203.729806,306.695086 C192.549156,313.023086 184.776831,314.004753 180.412831,309.640086 L177.467831,306.695086 L176.916331,357.277086 L291.353831,357.277086 C312.355831,357.277086 331.296831,348.480086 344.704831,334.371086 C354.630831,323.925086 347.362831,306.695086 332.952831,306.695086 Z" id="Path" fill="#FCAD6D"></path>
                <path d="M187.952831,306.695086 L62.0478313,306.695086 L59.1028313,309.640086 C52.5568313,316.187086 41.9588313,316.187086 35.4128313,309.640086 L32.4678313,306.695086 L31.9163313,357.277086 L146.353831,357.277086 C167.355831,357.277086 186.296831,348.480086 199.704831,334.371086 C209.630831,323.925086 202.362831,306.695086 187.952831,306.695086 Z" id="Path" fill="#FD995B" transform="translate(118.098819, 331.986086) scale(-1, 1) translate(-118.098819, -331.986086) "></path>
                <path d="M121.987168,264.819085 C114.496168,257.328085 105.228168,252.034085 95.1781681,249.311085 L51.5201681,249.311085 C45.1051681,249.311085 39.8571681,254.559085 39.8571681,260.974085 C39.8571681,267.389085 45.1051681,272.637085 51.5201681,272.637085 L126.205168,272.637085 C127.298168,272.637085 128.352168,272.474085 129.357168,272.189085 L121.987168,264.819085 Z" id="Path" fill="#FF9100" transform="translate(84.607168, 260.974085) rotate(-5.000000) translate(-84.607168, -260.974085) "></path>
                <path d="M277.792898,231.48477 C267.742898,234.20777 258.474898,239.50177 250.983898,246.99277 L243.612898,254.36377 C244.617898,254.64777 245.671898,254.81177 246.764898,254.81177 L321.449898,254.81177 C327.864898,254.81177 333.112898,249.56377 333.112898,243.14877 C333.113898,236.73277 327.865898,231.48477 321.450898,231.48477 L277.792898,231.48477 Z" id="Path" fill="#FFB332" transform="translate(288.362898, 243.148270) rotate(-5.000000) translate(-288.362898, -243.148270) "></path>
                <path d="M326.503331,262.695086 L239.176331,262.695086 L194.916331,306.954086 L326.502331,306.954086 C338.673331,306.954086 348.631332,296.996086 348.631332,284.824086 C348.633331,272.653086 338.674331,262.695086 326.503331,262.695086 L326.503331,262.695086 Z" id="Path" fill="#A05838"></path>
                <path d="M78.3923587,262.801086 L31.9163235,262.695086 L34.1323587,307.060086 L165.718359,307.060086 C177.889359,307.060086 187.847367,297.102086 187.847367,284.930086 C187.849359,272.759086 177.890359,262.801086 165.719359,262.801086 L78.3923587,262.801086 Z" id="Path" fill="#823C26" transform="translate(109.881845, 284.877586) rotate(180.000000) translate(-109.881845, -284.877586) "></path>
                <path d="M231.457853,172.257016 C209.855853,172.257016 209.843853,151.181016 188.241853,151.181016 C166.639853,151.181016 166.627853,172.257016 145.025853,172.257016 C124.155853,172.257016 123.443853,152.588016 103.938853,151.256016 L103.938853,174.474016 C103.938853,181.429016 109.628853,187.120016 116.583853,187.120016 L255.683853,187.120016 C262.638853,187.120016 268.328853,181.429016 268.328853,174.474016 L268.328853,151.889016 C252.814853,155.534016 250.706853,172.257016 231.457853,172.257016 L231.457853,172.257016 Z" id="Path" fill="#FF7186" transform="translate(186.133853, 169.150516) rotate(4.000000) translate(-186.133853, -169.150516) "></path>
                <path d="M166.067483,181.405631 C162.092483,177.545631 161.779483,171.214631 161.933483,167.863631 C161.998483,166.440631 161.408483,165.078631 160.345483,164.131631 C160.289483,164.081631 160.240483,164.032631 160.185483,163.982631 C156.373483,166.736631 151.779483,168.727631 145.145483,168.727631 C124.275483,168.727631 123.563483,149.058631 104.058483,147.726631 L104.058483,170.944631 C104.058483,177.899631 109.748483,183.590631 116.703483,183.590631 L167.261483,183.590631 C167.084483,182.778631 166.693483,182.013631 166.067483,181.405631 L166.067483,181.405631 Z" id="Path" fill="#FF4155" transform="translate(135.659983, 165.658631) rotate(4.000000) translate(-135.659983, -165.658631) "></path>
                <path d="M58.9232612,163.656464 C55.3882612,163.656464 52.4392612,163.084464 49.8712612,162.140464 C40.2222612,172.195464 30.3212612,178.815464 22.0422612,178.462464 L22.0422612,178.518464 L91.5922612,178.518464 C98.5472612,178.518464 104.238261,172.827464 104.238261,165.872464 L104.238261,142.654464 C103.555261,142.607464 102.852261,142.579464 102.121261,142.579464 C80.5222612,142.580464 80.5222612,163.656464 58.9232612,163.656464 L58.9232612,163.656464 Z" id="Path" fill="#FF4155" transform="translate(63.140261, 160.548964) rotate(4.000000) translate(-63.140261, -160.548964) "></path>
                <path d="M353.119022,195.785615 C345.118022,195.731615 335.750022,188.969615 326.608022,179.442615 C324.040022,180.386615 321.092022,180.958615 317.556022,180.958615 C295.957022,180.958615 295.957022,159.882615 274.358022,159.882615 C272.006022,159.882615 269.922022,160.144615 268.026022,160.589615 L268.026022,183.174615 C268.026022,190.129615 273.716022,195.820615 280.671022,195.820615 L353.119022,195.820615 L353.119022,195.785615 Z" id="Path" fill="#FF4155" transform="translate(310.572522, 177.851615) rotate(4.000000) translate(-310.572522, -177.851615) "></path>
                <path d="M30.1762651,145.791864 C25.5512651,144.237864 20.6092651,143.179864 15.6992651,143.179864 C15.6992651,143.179864 2.0912651,146.052864 2,159.392864 C1.9052651,173.207864 27.3602651,187.379864 50.8762651,161.674864 C41.9342651,158.372864 37.6992651,150.477864 30.1762651,145.791864 L30.1762651,145.791864 Z" id="Path" fill="#24B55E" transform="translate(26.438133, 159.568289) rotate(4.000000) translate(-26.438133, -159.568289) "></path>
                <path d="M346.075615,168.40449 C350.700615,166.85049 355.643615,165.79249 360.552615,165.79249 C360.552615,165.79249 374.160615,168.66549 374.25188,182.00549 C374.346615,195.82049 348.891615,209.99249 325.375615,184.28749 C334.317615,180.98549 338.552615,173.09049 346.075615,168.40449 Z" id="Path" fill="#24B55E" transform="translate(349.813747, 182.180915) rotate(4.000000) translate(-349.813747, -182.180915) "></path>
                <path d="M44.3785732,218.717963 C38.7615732,218.717963 33.8315732,222.862963 33.2835732,228.452963 C32.6525732,234.876963 37.7395732,240.339963 44.0405732,240.339963 L80.3755732,240.339963 C96.3255732,240.339963 111.623573,246.675963 122.902573,257.954963 L174.827573,309.879963 C181.986573,317.038963 193.593573,317.038963 200.752573,309.879963 L252.677573,257.954963 C263.956573,246.675963 279.254573,240.339963 295.204573,240.339963 L331.201573,240.339963 C336.818573,240.339963 341.748573,236.194963 342.296573,230.604963 C342.928573,224.181963 337.841573,218.717963 331.540573,218.717963 L44.3785732,218.717963 Z" id="Path" fill="#FFDD40" transform="translate(187.790153, 266.983588) rotate(-5.000000) translate(-187.790153, -266.983588) "></path>
                <path d="M44.2567976,245.269412 L80.5917976,245.269412 C96.5417976,245.269412 111.839798,251.605412 123.118798,262.885412 L175.043798,314.810412 C182.202798,321.969412 193.809798,321.969412 200.968798,314.810412 L229.446798,286.332412 C205.698798,298.084412 181.985798,262.038412 169.027798,249.080412 C160.238798,240.291412 163.371798,231.725412 166.297798,227.122412 C166.967798,226.067412 167.160798,224.808412 166.906798,223.646412 L44.5937976,223.646412 C38.9767976,223.647412 34.0467976,227.792412 33.4987976,233.382412 C32.8677976,239.806412 37.9557976,245.269412 44.2567976,245.269412 Z" id="Path" fill="#FFB332" transform="translate(131.446299, 271.913037) rotate(-5.000000) translate(-131.446299, -271.913037) "></path>
                <path d="M323.635076,136.703098 L54.6760764,136.703098 C43.7770764,148.629098 16.3340764,154.521098 16.3340764,154.521098 C37.9360764,154.521098 37.9360764,175.597098 59.5370764,175.597098 C81.1360764,175.597098 81.1360764,154.521098 102.735076,154.521098 C124.337076,154.521098 124.337076,175.597098 145.939076,175.597098 C167.541076,175.597098 167.553076,154.521098 189.155076,154.521098 C210.757076,154.521098 210.769076,175.597098 232.371076,175.597098 C253.973076,175.597098 253.973076,154.521098 275.575076,154.521098 C297.174076,154.521098 297.174076,175.597098 318.773076,175.597098 C340.375076,175.597098 340.375076,154.521098 361.976076,154.521098 C361.976076,154.522098 334.533076,148.629098 323.635076,136.703098 L323.635076,136.703098 Z" id="Path" fill="#49D88B" transform="translate(189.155076, 156.150098) rotate(4.000000) translate(-189.155076, -156.150098) "></path>
                <path d="M16.5771135,147.561425 C38.1791135,147.561425 38.1791135,168.637425 59.7801135,168.637425 C81.3791135,168.637425 81.3791135,147.561425 102.978114,147.561425 C124.580114,147.561425 124.580114,168.637425 146.182114,168.637425 C153.680114,168.637425 158.575114,166.096425 162.677114,162.781425 C162.409114,162.061425 161.972114,161.405425 161.382114,160.880425 C149.526114,150.321425 155.213114,139.677425 159.122114,134.722425 C160.264114,133.274425 160.395114,131.315425 159.557114,129.743425 L54.9191135,129.743425 C44.0211135,141.669425 16.5771135,147.561425 16.5771135,147.561425 L16.5771135,147.561425 Z" id="Path" fill="#38C674" transform="translate(89.627114, 149.190425) rotate(4.000000) translate(-89.627114, -149.190425) "></path>
                <path d="M274.393114,9 L120.460114,9 C79.7981141,9 40.5121141,41.963 40.5121141,82.625 C40.5121141,97.835 52.8421141,110.164 68.0511141,110.164 L326.802114,110.164 C342.012114,110.164 354.341114,97.835 354.341114,82.625 C354.341114,41.963 315.055114,9 274.393114,9 L274.393114,9 Z" id="Path" fill="#FCAD6D" transform="translate(197.426614, 59.582000) rotate(-3.000000) translate(-197.426614, -59.582000) "></path>
                <path d="M167.140581,112.033562 C143.145581,84.488562 166.996581,57.029562 166.996581,57.029562 L169.907581,35.262562 C162.576581,27.931562 163.562581,21.529562 165.419581,17.675562 C166.010581,16.449562 166.220581,15.118562 166.091581,13.829562 L120.586581,13.829562 C79.9245806,13.829562 40.6385806,46.792562 40.6385806,87.454562 C40.6385806,102.663562 52.9685806,114.993562 68.1775806,114.993562 L168.254581,114.993562 C168.246581,113.933562 167.877581,112.879562 167.140581,112.033562 L167.140581,112.033562 Z" id="Path" fill="#FD995B" transform="translate(105.273081, 64.411562) rotate(-3.000000) translate(-105.273081, -64.411562) "></path>
                <path d="M265.95508,45.8193747 C262.86908,42.7333747 262.86908,37.7283747 265.95608,34.6423747 L271.91808,28.6823747 C275.00508,25.5973747 280.00908,25.5963747 283.09508,28.6833747 C286.18108,31.7693747 286.18108,36.7743747 283.09408,39.8603747 L277.13208,45.8203747 C274.04508,48.9053747 269.04108,48.9063747 265.95508,45.8193747 Z" id="Path" fill="#FCF0BE" transform="translate(274.525080, 37.251375) rotate(-3.000000) translate(-274.525080, -37.251375) "></path>
                <path d="M212.224817,48.6352585 C209.138817,45.5492585 209.138817,40.5442585 212.225817,37.4582585 L218.186817,31.4982585 C221.273817,28.4132585 226.277817,28.4122585 229.364817,31.4992585 C232.450817,34.5852585 232.450817,39.5902585 229.363817,42.6762585 L223.402817,48.6362585 C220.315817,51.7212585 215.312817,51.7222585 212.224817,48.6352585 Z" id="Path" fill="#FCF0BE" transform="translate(220.794817, 40.067258) rotate(-3.000000) translate(-220.794817, -40.067258) "></path>
                <path d="M158.495552,51.4510899 C155.409552,48.3650899 155.409552,43.3600899 158.496552,40.2740899 L164.457552,34.3140899 C167.544552,31.2290899 172.548552,31.2280899 175.635552,34.3150899 C178.721552,37.4010899 178.721552,42.4060899 175.634552,45.4920899 L169.673552,51.4520899 C166.586552,54.5370899 161.583552,54.5380899 158.495552,51.4510899 Z" id="Path" fill="#FCF0BE" transform="translate(167.065552, 42.883090) rotate(-3.000000) translate(-167.065552, -42.883090) "></path>
                <path d="M104.766287,54.2669214 C101.680287,51.1809214 101.680287,46.1759214 104.767287,43.0899214 L110.728287,37.1299214 C113.815287,34.0449214 118.819287,34.0439214 121.906287,37.1309214 C124.992287,40.2169214 124.992287,45.2219214 121.905287,48.3079214 L115.944287,54.2679214 C112.856287,57.3529214 107.853287,57.3539214 104.766287,54.2669214 L104.766287,54.2669214 Z" id="Path" fill="#FCF0BE" transform="translate(113.336287, 45.698921) rotate(-3.000000) translate(-113.336287, -45.698921) "></path>
            </g>
        </g>
    </g>
</svg>