<?xml version="1.0" encoding="UTF-8"?>
<svg width="48px" height="48px" viewBox="0 0 48 48" version="1.1" xmlns="http://www.w3.org/2000/svg" xmlns:xlink="http://www.w3.org/1999/xlink">
    <!-- Generator: Sketch 50.2 (55047) - http://www.bohemiancoding.com/sketch -->
    <title>Spotify_white</title>
    <desc>Created with Sketch.</desc>
    <defs></defs>
    <g id="Spotify_white" stroke="none" stroke-width="1" fill="none" fill-rule="evenodd">
        <g id="Spotify" fill="#FFFFFF" fill-rule="nonzero">
            <path d="M38.1966362,21.2763976 C30.4604417,16.6820828 17.6997618,16.25965 10.3146394,18.5010658 C9.12844576,18.8610221 7.87433054,18.1915492 7.51523402,17.0056422 C7.1558509,15.8188755 7.82446399,14.56562 9.01123072,14.2050906 C17.4891186,11.6318042 31.5818661,12.1287503 40.4879185,17.4154651 C41.5548908,18.0488277 41.9045299,19.426463 41.2723137,20.4914292 C40.6395242,21.558115 39.2607426,21.9097602 38.1966362,21.2763976 M37.9432911,28.0811765 C37.4004908,28.9618657 36.2489746,29.2381379 35.3694317,28.6973437 C28.9200237,24.7329524 19.0848484,23.5843021 11.4544054,25.9005177 C10.4650988,26.1994304 9.4199072,25.6417274 9.11927496,24.6538538 C8.82122192,23.6645471 9.37921152,22.6213617 10.3670852,22.3204428 C19.083702,19.6752226 29.9199341,20.9562772 37.327697,25.5087499 C38.20724,26.0504039 38.4840854,27.2024934 37.9432911,28.0811765 M35.0066094,34.6162747 C34.5752924,35.3235774 33.6544806,35.545111 32.9497573,35.1140805 C27.3139766,31.6695624 20.2203156,30.8917588 11.8662344,32.799871 C11.0612047,32.9844346 10.2587544,32.4800373 10.0753372,31.6752942 C9.8907736,30.8702646 10.3934514,30.0678142 11.2002006,29.8841104 C20.3424027,27.7943005 28.1843486,28.693618 34.5102366,32.5591359 C35.2155331,32.9898798 35.4376399,33.9112647 35.0066094,34.6162747 M23.9998567,9.9475983e-14 C10.7453832,9.9475983e-14 0,10.7450966 0,23.9995701 C0,37.2554766 10.7453832,48 23.9998567,48 C37.2549034,48 48,37.2554766 48,23.9995701 C48,10.7450966 37.2549034,9.9475983e-14 23.9998567,9.9475983e-14" id="Spotify-Copy"></path>
        </g>
    </g>
</svg>