<?xml version="1.0" encoding="UTF-8"?>
<svg width="48px" height="48px" viewBox="0 0 48 48" version="1.1" xmlns="http://www.w3.org/2000/svg" xmlns:xlink="http://www.w3.org/1999/xlink">
    <!-- Generator: Sketch 50.2 (55047) - http://www.bohemiancoding.com/sketch -->
    <title>Spotify</title>
    <desc>Created with Sketch.</desc>
    <defs></defs>
    <g id="Spotify" stroke="none" stroke-width="1" fill="none" fill-rule="evenodd">
        <g fill-rule="nonzero">
            <path d="M23.9998567,9.9475983e-14 C10.7453832,9.9475983e-14 0,10.7450966 0,23.9995701 C0,37.2554766 10.7453832,48 23.9998567,48 C37.2549034,48 48,37.2554766 48,23.9995701 C48,10.7450966 37.2549034,9.9475983e-14 23.9998567,9.9475983e-14" id="Shape" fill="#1ED760"></path>
            <path d="M34.4789886,34.0945369 C34.0541723,34.791179 33.147239,35.0093737 32.4531373,34.5848398 C26.9022994,31.1922376 19.9155542,30.426157 11.6873861,32.3055102 C10.8944898,32.487292 10.1041341,31.9904969 9.92348136,31.197883 C9.74169952,30.4049868 10.236801,29.614631 11.0313908,29.433696 C20.0358012,27.3753837 27.759553,28.2611467 33.990097,32.0684034 C34.6847633,32.4926551 34.9035225,33.4001529 34.4789886,34.0945369" id="Path" fill="#FFFFFF"></path>
            <path d="M37.3714084,27.6579359 C36.8367892,28.5253514 35.7026286,28.7974596 34.8363422,28.2648162 C28.4841399,24.3601764 18.7972008,23.2288386 11.2817642,25.5101441 C10.3073684,25.8045516 9.27793,25.2552543 8.98182888,24.2822699 C8.68826816,23.3078742 9.23784768,22.2804117 10.2108321,21.9840282 C18.7960718,19.3786769 29.4689797,20.6404234 36.7650926,25.1242811 C37.631379,25.6577713 37.9040518,26.7924963 37.3714084,27.6579359" id="Path" fill="#FFFFFF"></path>
            <path d="M37.620935,20.9557189 C30.0013408,16.4306498 17.4329903,16.0145839 10.1591767,18.222217 C8.99086152,18.576748 7.75564834,17.9173655 7.40196413,16.7493326 C7.04799765,15.5804528 7.70653338,14.3460865 8.87541312,13.9909909 C17.2255219,11.4564893 31.105863,11.9459453 39.877683,17.1529786 C40.9285739,17.776795 41.2729433,19.1336666 40.6502558,20.1825816 C40.0270038,21.2331902 38.6690032,21.5795354 37.620935,20.9557189" id="Path" fill="#FFFFFF"></path>
        </g>
    </g>
</svg>