<?xml version="1.0" encoding="UTF-8"?>
<svg width="50px" height="50px" viewBox="0 0 50 50" version="1.1" xmlns="http://www.w3.org/2000/svg" xmlns:xlink="http://www.w3.org/1999/xlink">
    <!-- Generator: Sketch 57.1 (83088) - https://sketch.com -->
    <title>sun</title>
    <desc>Created with Sketch.</desc>
    <g id="Page-1" stroke="none" stroke-width="1" fill="none" fill-rule="evenodd">
        <g id="Homepage-Light-Mode" transform="translate(-926.000000, -92.000000)" fill="#FFFFFF" fill-rule="nonzero">
            <g id="sun" transform="translate(926.000000, 92.000000)">
                <path d="M33.22253,15.900277 C31.0249307,13.7026777 27.9224377,12.2807018 24.5614035,12.2807018 C21.2003693,12.2807018 18.0978763,13.6380425 15.900277,15.900277 C13.7026777,18.0978763 12.2807018,21.2003693 12.2807018,24.5614035 C12.2807018,27.9224377 13.7026777,31.0249307 15.900277,33.22253 C18.0978763,35.4201293 21.2003693,36.8421053 24.5614035,36.8421053 C27.9224377,36.8421053 31.0249307,35.4847645 33.22253,33.22253 C35.4201293,31.0249307 36.8421053,27.9224377 36.8421053,24.5614035 C36.8421053,21.2003693 35.4847645,18.0978763 33.22253,15.900277 Z" id="Path"></path>
                <path d="M25.4385965,8.77192982 C26.3832659,8.77192982 27.1929825,7.95593635 27.1929825,7.00394397 L27.1929825,1.76798586 C27.1929825,0.815993472 26.3832659,0 25.4385965,0 C24.4939271,0 23.6842105,0.815993472 23.6842105,1.76798586 L23.6842105,7.00394397 C23.6842105,7.95593635 24.4939271,8.77192982 25.4385965,8.77192982 Z" id="Path"></path>
                <path d="M38.8447534,13.5385634 L42.4859318,9.89738497 C43.1479643,9.23535253 43.1479643,8.17610063 42.4859318,7.51406819 C41.8238994,6.85203575 40.7646475,6.85203575 40.102615,7.51406819 L36.4614366,11.1552466 C35.7994042,11.817279 35.7994042,12.876531 36.4614366,13.5385634 C37.0572658,14.2005958 38.1165177,14.2005958 38.8447534,13.5385634 Z" id="Path"></path>
                <path d="M48.2320141,23.6842105 L42.996056,23.6842105 C42.0440636,23.6842105 41.2280702,24.4939271 41.2280702,25.4385965 C41.2280702,26.3832659 42.0440636,27.1929825 42.996056,27.1929825 L48.2320141,27.1929825 C49.1840065,27.1929825 50,26.3832659 50,25.4385965 C50,24.4939271 49.1840065,23.6842105 48.2320141,23.6842105 Z" id="Path"></path>
                <path d="M38.8447534,36.4614366 C38.182721,35.7994042 37.123469,35.7994042 36.4614366,36.4614366 C35.7994042,37.123469 35.7994042,38.182721 36.4614366,38.8447534 L40.102615,42.4859318 C40.7646475,43.1479643 41.8238994,43.1479643 42.4859318,42.4859318 C43.1479643,41.8238994 43.1479643,40.7646475 42.4859318,40.102615 L38.8447534,36.4614366 Z" id="Path"></path>
                <path d="M25.4385965,41.2280702 C24.4939271,41.2280702 23.6842105,42.0440636 23.6842105,42.996056 L23.6842105,48.2320141 C23.6842105,49.1840065 24.4939271,50 25.4385965,50 C26.3832659,50 27.1929825,49.1840065 27.1929825,48.2320141 L27.1929825,42.996056 C27.1929825,42.0440636 26.3832659,41.2280702 25.4385965,41.2280702 Z" id="Path"></path>
                <path d="M11.1552466,36.4614366 L7.51406819,40.102615 C6.85203575,40.7646475 6.85203575,41.8238994 7.51406819,42.4859318 C8.17610063,43.1479643 9.23535253,43.1479643 9.89738497,42.4859318 L13.5385634,38.8447534 C14.2005958,38.182721 14.2005958,37.123469 13.5385634,36.4614366 C12.9427342,35.7994042 11.8834823,35.7994042 11.1552466,36.4614366 Z" id="Path"></path>
                <path d="M8.77192982,25.4385965 C8.77192982,24.4939271 7.95593635,23.6842105 7.00394397,23.6842105 L1.76798586,23.6842105 C0.815993472,23.6842105 0,24.4939271 0,25.4385965 C0,26.3832659 0.815993472,27.1929825 1.76798586,27.1929825 L7.00394397,27.1929825 C7.95593635,27.1929825 8.77192982,26.3832659 8.77192982,25.4385965 Z" id="Path"></path>
                <path d="M11.1552466,13.5385634 C11.817279,14.2005958 12.876531,14.2005958 13.5385634,13.5385634 C14.2005958,12.876531 14.2005958,11.817279 13.5385634,11.1552466 L9.89738497,7.51406819 C9.23535253,6.85203575 8.17610063,6.85203575 7.51406819,7.51406819 C6.85203575,8.17610063 6.85203575,9.23535253 7.51406819,9.89738497 L11.1552466,13.5385634 Z" id="Path"></path>
            </g>
        </g>
    </g>
</svg>