<?xml version="1.0" encoding="UTF-8"?>
<svg width="274px" height="274px" viewBox="0 0 274 274" version="1.1" xmlns="http://www.w3.org/2000/svg" xmlns:xlink="http://www.w3.org/1999/xlink">
    <!-- Generator: Sketch 57.1 (83088) - https://sketch.com -->
    <title>sun (2)</title>
    <desc>Created with Sketch.</desc>
    <g id="Page-1" stroke="none" stroke-width="1" fill="none" fill-rule="evenodd">
        <g id="Artboard" transform="translate(-350.000000, -405.000000)" fill-rule="nonzero">
            <g id="sun-(2)" transform="translate(350.000000, 405.000000)">
                <path d="M206,136.5 C206,177.645238 178.036959,211 136.752155,211 C95.4673512,211 62,177.645238 62,136.5 C62,95.3547616 95.4679017,62 136.752706,62 C178.03751,62 206,95.3547616 206,136.5 Z" id="Path" fill="#FEE45A"></path>
                <path d="M136.256297,62 C133.465118,62 130.711368,62.1574554 128,62.4548102 C165.393868,66.551394 194.487407,98.1368396 194.487407,136.5 C194.487407,174.86316 165.393868,206.448606 128,210.54519 C130.711368,210.842545 133.465118,211 136.256297,211 C177.536129,211 211,177.645238 211,136.5 C211,95.3547616 177.535578,62 136.256297,62 Z" id="Path" fill="#FED402"></path>
                <path d="M136.499743,44 L122.888695,44 C120.893982,44 119.50062,42.0263121 120.169589,40.147902 L127.64907,19.1397313 L133.780637,1.91773993 C134.691255,-0.639246642 138.308786,-0.639246642 139.219404,1.91773993 L145.350971,19.1397313 L152.830452,40.147902 C153.499421,42.0257582 152.105505,44 150.111346,44 L136.499743,44 Z" id="Path" fill="#FEE45A"></path>
                <path d="M136.500158,230 L150.111288,230 C152.106013,230 153.499383,231.973688 152.83041,233.852098 L145.350884,254.860269 L139.21928,272.08226 C138.308657,274.639247 134.691105,274.639247 133.780482,272.08226 L127.648878,254.860269 L120.169353,233.852098 C119.500934,231.973688 120.894304,230 122.888475,230 L136.500158,230 Z" id="Path" fill="#FEE45A"></path>
                <path d="M230,136.499743 L230,122.888695 C230,120.893982 231.973688,119.50062 233.852098,120.169589 L254.860269,127.64907 L272.08226,133.780637 C274.639247,134.691255 274.639247,138.308786 272.08226,139.219404 L254.860269,145.350971 L233.852098,152.830452 C231.973688,153.499421 230,152.105505 230,150.111346 L230,136.499743 Z" id="Path" fill="#FED402"></path>
                <path d="M44,136.500158 L44,150.111288 C44,152.106013 42.0263121,153.499383 40.147902,152.83041 L19.1397313,145.350884 L1.91773993,139.21928 C-0.639246642,138.309211 -0.639246642,134.691105 1.91773993,133.780482 L19.1397313,127.648878 L40.147902,120.169353 C42.0263121,119.500934 44,120.894304 44,122.888475 L44,136.500158 Z" id="Path" fill="#FEE45A"></path>
                <path d="M70.6418638,70.642177 L61.1209555,80.163085 C59.725579,81.5584614 57.3696134,81.1516365 56.5230668,79.3691734 L47.052052,59.4342069 L39.2872894,43.0915807 C38.1342534,40.6654352 40.6651208,38.1345678 43.0918147,39.2870555 L59.4344416,47.0512696 L79.3694088,56.522284 C81.151872,57.3688306 81.5581486,59.7253444 80.1633205,61.1201725 L70.6418638,70.642177 Z" id="Path" fill="#FEE45A"></path>
                <path d="M202.358184,202.357823 L211.879136,192.836915 C213.274519,191.441539 215.630496,191.848363 216.477046,193.630827 L225.948653,213.565793 L233.712903,229.908419 C234.865396,232.334565 232.335065,234.865432 229.90836,233.712944 L213.565658,225.94873 L193.630599,216.477168 C191.848127,215.630621 191.441849,213.274107 192.836683,211.879279 L202.358184,202.357823 Z" id="Path" fill="#FED402"></path>
                <path d="M202.357823,70.6413155 L192.836915,61.1204072 C191.441539,59.7250308 191.848363,57.3690651 193.630827,56.5225185 L213.565793,47.0515038 L229.908419,39.2872894 C232.334565,38.1342534 234.865432,40.6651208 233.712944,43.0918147 L225.94873,59.4344416 L216.477168,79.3694088 C215.630621,81.151872 213.274107,81.5581486 211.879279,80.1633205 L202.357823,70.6413155 Z" id="Path" fill="#FED402"></path>
                <path d="M70.642177,202.358684 L80.163085,211.879593 C81.5584614,213.274969 81.1516365,215.630935 79.3691734,216.477482 L59.4342069,225.948496 L43.0915807,233.712711 C40.6654352,234.865747 38.1345678,232.334879 39.2870555,229.908185 L47.0512696,213.565558 L56.522284,193.630591 C57.3688306,191.848128 59.7253444,191.441851 61.1201725,192.83668 L70.642177,202.358684 Z" id="Path" fill="#FEE45A"></path>
            </g>
        </g>
    </g>
</svg>