<?xml version="1.0" encoding="UTF-8"?>
<svg width="40px" height="40px" viewBox="0 0 40 40" version="1.1" xmlns="http://www.w3.org/2000/svg" xmlns:xlink="http://www.w3.org/1999/xlink">
    <!-- Generator: Sketch 57.1 (83088) - https://sketch.com -->
    <title>Github-grayscale-dark-mode-color</title>
    <desc>Created with Sketch.</desc>
    <g id="Icons" stroke="none" stroke-width="1" fill="none" fill-rule="evenodd">
        <g id="Black" transform="translate(-624.000000, -50.000000)" fill="#FFFFFF">
            <path d="M643.99875,50 C632.955,50 624,58.9892434 624,70.0805366 C624,78.9505593 629.73,86.4765251 637.67875,89.1320101 C638.67875,89.3164885 639.04375,88.6965407 639.04375,88.1644397 C639.04375,87.6875568 639.02625,86.4250719 639.01625,84.7497069 C633.4525,85.9632484 632.27875,82.0578282 632.27875,82.0578282 C631.37,79.7386711 630.05875,79.1212332 630.05875,79.1212332 C628.2425,77.8750628 630.19625,77.9001619 630.19625,77.9001619 C632.2025,78.0419718 633.25875,79.9695829 633.25875,79.9695829 C635.04375,83.0379481 637.94,82.1519498 639.08,81.6374182 C639.26125,80.3397946 639.77875,79.4550513 640.35,78.9530692 C635.90875,78.4460674 631.24,76.724269 631.24,69.0301392 C631.24,66.8377326 632.01875,65.0456568 633.29875,63.641362 C633.0925,63.1331052 632.40625,61.0925482 633.49375,58.3278821 C633.49375,58.3278821 635.17375,57.7882514 638.99375,60.3860084 C640.59,59.9404994 642.3,59.7183723 644.00125,59.7095876 C645.7,59.7183723 647.41125,59.9404994 649.00875,60.3860084 C652.82625,57.7882514 654.5025,58.3278821 654.5025,58.3278821 C655.59375,61.0925482 654.9075,63.1331052 654.70125,63.641362 C655.98375,65.0456568 656.7575,66.8377326 656.7575,69.0301392 C656.7575,76.7430933 652.08125,78.4410475 647.62625,78.9380098 C648.34375,79.5579576 648.98375,80.7827938 648.98375,82.6564417 C648.98375,85.3407907 648.95875,87.5055883 648.95875,88.1644397 C648.95875,88.7015605 649.31875,89.3265281 650.33375,89.1295002 C658.275,86.4689954 664,78.9480494 664,70.0805366 C664,58.9892434 655.045,50 643.99875,50" id="Github-grayscale-dark-mode"></path>
        </g>
    </g>
</svg>