<?xml version="1.0" encoding="UTF-8"?>
<svg width="40px" height="41px" viewBox="0 0 40 41" version="1.1" xmlns="http://www.w3.org/2000/svg" xmlns:xlink="http://www.w3.org/1999/xlink">
    <!-- Generator: Sketch 57.1 (83088) - https://sketch.com -->
    <title>Github-colored</title>
    <desc>Created with Sketch.</desc>
    <g id="Icons" stroke="none" stroke-width="1" fill="none" fill-rule="evenodd">
        <g id="Black" transform="translate(-360.000000, -59.000000)">
            <g id="Github-colored" transform="translate(360.000000, 59.000000)">
                <ellipse id="Oval" fill="#FFFFFF" cx="20" cy="20.5" rx="20" ry="20.5"></ellipse>
                <path d="M19.99875,0 C8.955,0 0,9.18050392 0,20.5077821 C0,29.5665287 5.73,37.2526214 13.67875,39.964606 C14.67875,40.1530095 15.04375,39.5198713 15.04375,38.9764491 C15.04375,38.4894197 15.02625,37.2000735 15.01625,35.4890623 C9.4525,36.7284239 8.27875,32.7399096 8.27875,32.7399096 C7.37,30.3714088 6.05875,29.7408339 6.05875,29.7408339 C4.2425,28.4681492 6.19625,28.4937824 6.19625,28.4937824 C8.2025,28.6386095 9.25875,30.6072336 9.25875,30.6072336 C11.04375,33.7408832 13.94,32.8360338 15.08,32.3105548 C15.26125,30.9853222 15.77875,30.0817545 16.35,29.569092 C11.90875,29.0513028 7.24,27.2928704 7.24,19.4350358 C7.24,17.1959823 8.01875,15.3657771 9.29875,13.9316037 C9.0925,13.4125329 8.40625,11.3285598 9.49375,8.50507106 C9.49375,8.50507106 11.17375,7.95395886 14.99375,10.6069874 C16.59,10.1519994 18.3,9.92514621 20.00125,9.91617462 C21.7,9.92514621 23.41125,10.1519994 25.00875,10.6069874 C28.82625,7.95395886 30.5025,8.50507106 30.5025,8.50507106 C31.59375,11.3285598 30.9075,13.4125329 30.70125,13.9316037 C31.98375,15.3657771 32.7575,17.1959823 32.7575,19.4350358 C32.7575,27.3120953 28.08125,29.0461762 23.62625,29.5537121 C24.34375,30.1868503 24.98375,31.4377468 24.98375,33.3512597 C24.98375,36.0927224 24.95875,38.3035795 24.95875,38.9764491 C24.95875,39.5249979 25.31875,40.1632628 26.33375,39.9620427 C34.275,37.2449314 40,29.5639654 40,20.5077821 C40,9.18050392 31.045,0 19.99875,0" id="Github-colored-2" fill="#17171D"></path>
            </g>
        </g>
    </g>
</svg>