<?xml version="1.0" encoding="UTF-8"?>
<svg width="40px" height="40px" viewBox="0 0 40 40" version="1.1" xmlns="http://www.w3.org/2000/svg" xmlns:xlink="http://www.w3.org/1999/xlink">
    <!-- Generator: Sketch 57.1 (83088) - https://sketch.com -->
    <title>Github-grayscale-color</title>
    <desc>Created with Sketch.</desc>
    <g id="Icons" stroke="none" stroke-width="1" fill="none" fill-rule="evenodd">
        <g id="Black" transform="translate(-855.000000, -39.000000)" fill="#CACACA">
            <path d="M874.99875,39 C863.955,39 855,47.9892434 855,59.0805366 C855,67.9505593 860.73,75.4765251 868.67875,78.1320101 C869.67875,78.3164885 870.04375,77.6965407 870.04375,77.1644397 C870.04375,76.6875568 870.02625,75.4250719 870.01625,73.7497069 C864.4525,74.9632484 863.27875,71.0578282 863.27875,71.0578282 C862.37,68.7386711 861.05875,68.1212332 861.05875,68.1212332 C859.2425,66.8750628 861.19625,66.9001619 861.19625,66.9001619 C863.2025,67.0419718 864.25875,68.9695829 864.25875,68.9695829 C866.04375,72.0379481 868.94,71.1519498 870.08,70.6374182 C870.26125,69.3397946 870.77875,68.4550513 871.35,67.9530692 C866.90875,67.4460674 862.24,65.724269 862.24,58.0301392 C862.24,55.8377326 863.01875,54.0456568 864.29875,52.641362 C864.0925,52.1331052 863.40625,50.0925482 864.49375,47.3278821 C864.49375,47.3278821 866.17375,46.7882514 869.99375,49.3860084 C871.59,48.9404994 873.3,48.7183723 875.00125,48.7095876 C876.7,48.7183723 878.41125,48.9404994 880.00875,49.3860084 C883.82625,46.7882514 885.5025,47.3278821 885.5025,47.3278821 C886.59375,50.0925482 885.9075,52.1331052 885.70125,52.641362 C886.98375,54.0456568 887.7575,55.8377326 887.7575,58.0301392 C887.7575,65.7430933 883.08125,67.4410475 878.62625,67.9380098 C879.34375,68.5579576 879.98375,69.7827938 879.98375,71.6564417 C879.98375,74.3407907 879.95875,76.5055883 879.95875,77.1644397 C879.95875,77.7015605 880.31875,78.3265281 881.33375,78.1295002 C889.275,75.4689954 895,67.9480494 895,59.0805366 C895,47.9892434 886.045,39 874.99875,39" id="Github-grayscale"></path>
        </g>
    </g>
</svg>