<?xml version="1.0" encoding="UTF-8"?>
<svg width="40px" height="40px" viewBox="0 0 40 40" version="1.1" xmlns="http://www.w3.org/2000/svg" xmlns:xlink="http://www.w3.org/1999/xlink">
    <!-- Generator: Sketch 57.1 (83088) - https://sketch.com -->
    <title>Instagram-grayscale-dark-mode-color</title>
    <desc>Created with Sketch.</desc>
    <g id="Icons" stroke="none" stroke-width="1" fill="none" fill-rule="evenodd">
        <g id="Black" transform="translate(-769.000000, -49.000000)" fill="#FFFFFF">
            <path d="M790.397513,49.000639 C794.570954,49.0049264 795.3112,49.0320773 797.245974,49.1203554 C799.374741,49.2174496 800.828613,49.5555721 802.10076,50.0500138 C803.415937,50.561048 804.531289,51.2449146 805.643227,52.3567733 C806.755085,53.4687114 807.438952,54.5840632 807.950066,55.89924 C808.444428,57.1713874 808.78255,58.6252588 808.879645,60.7540256 C808.976977,62.8872382 809,63.5683261 809,69.0000397 C809,74.4316739 808.976977,75.1127618 808.879645,77.2459744 C808.78255,79.3747412 808.444428,80.8286126 807.950066,82.10076 C807.438952,83.4159368 806.755085,84.5312886 805.643227,85.6432267 C804.531289,86.7550854 803.415937,87.438952 802.10076,87.9500656 C800.828613,88.4444279 799.374741,88.7825504 797.245974,88.8796446 C795.112762,88.9769769 794.431674,89 789.00004,89 C783.568326,89 782.887238,88.9769769 780.754026,88.8796446 C778.625259,88.7825504 777.171387,88.4444279 775.89924,87.9500656 C774.584063,87.438952 773.468711,86.7550854 772.356773,85.6432267 C771.244915,84.5312886 770.561048,83.4159368 770.050014,82.10076 C769.555572,80.8286126 769.21745,79.3747412 769.120355,77.2459744 C769.032077,75.3112002 769.004926,74.5709536 769.000639,70.3975134 L769.000639,67.6025458 C769.004926,63.4290464 769.032077,62.6887998 769.120355,60.7540256 C769.21745,58.6252588 769.555572,57.1713874 770.050014,55.89924 C770.561048,54.5840632 771.244915,53.4687114 772.356773,52.3567733 C773.468711,51.2449146 774.584063,50.561048 775.89924,50.0500138 C777.171387,49.5555721 778.625259,49.2174496 780.754026,49.1203554 C782.63017,49.0347524 783.383086,49.006628 787.232466,49.0010928 L787.602546,49.000639 L790.397513,49.000639 Z M790.074562,52.6039297 L787.925502,52.6039297 C783.561883,52.6068987 782.876566,52.6308733 780.918284,52.7202213 C778.968303,52.8091382 777.909319,53.1349553 777.204572,53.4088512 C776.271024,53.7716641 775.604782,54.2050548 774.904958,54.9049581 C774.205055,55.6047821 773.771664,56.271024 773.408851,57.2045725 C773.134955,57.9093186 772.809138,58.9683035 772.720221,60.9182837 C772.630873,62.8765659 772.606899,63.5618826 772.60393,67.9255017 L772.60393,70.0745619 C772.606899,74.4381174 772.630873,75.1234341 772.720221,77.0817163 C772.809138,79.0316965 773.134955,80.0906814 773.408851,80.7954275 C773.771664,81.728976 774.205134,82.3952179 774.904958,83.0950419 C775.604782,83.7949452 776.271024,84.2283359 777.204572,84.5911488 C777.909319,84.8650447 778.968303,85.1908618 780.918284,85.2797787 C782.876345,85.3691267 783.561509,85.3931013 787.925425,85.3960703 L790.07464,85.3960703 C794.438502,85.3931013 795.123729,85.3691267 797.081716,85.2797787 C799.031697,85.1908618 800.090681,84.8650447 800.795428,84.5911488 C801.728976,84.2283359 802.395218,83.7949452 803.095042,83.0950419 C803.794945,82.3952179 804.228336,81.728976 804.591149,80.7954275 C804.865045,80.0906814 805.190862,79.0316965 805.279779,77.0817163 C805.369127,75.1234341 805.393101,74.4381174 805.39607,70.0745619 L805.39607,67.9255017 C805.393101,63.5618826 805.369127,62.8765659 805.279779,60.9182837 C805.190862,58.9683035 804.865045,57.9093186 804.591149,57.2045725 C804.228336,56.271024 803.794945,55.6047821 803.095042,54.9049581 C802.395218,54.2050548 801.728976,53.7716641 800.795428,53.4088512 C800.090681,53.1349553 799.031697,52.8091382 797.081716,52.7202213 C795.123434,52.6308733 794.438117,52.6068987 790.074562,52.6039297 Z M789.00004,58.7297362 C794.672147,58.7297362 799.270264,63.3278534 799.270264,69.0000397 C799.270264,74.6721466 794.672147,79.2702638 789.00004,79.2702638 C783.327853,79.2702638 778.729736,74.6721466 778.729736,69.0000397 C778.729736,63.3278534 783.327853,58.7297362 789.00004,58.7297362 Z M789.00004,62.3333333 C785.318084,62.3333333 782.333333,65.3180845 782.333333,69.0000397 C782.333333,72.6819155 785.318084,75.6666667 789.00004,75.6666667 C792.681916,75.6666667 795.666667,72.6819155 795.666667,69.0000397 C795.666667,65.3180845 792.681916,62.3333333 789.00004,62.3333333 Z M799.676027,55.9239304 C801.001524,55.9239304 802.07607,56.9984757 802.07607,58.3239732 C802.07607,59.6494708 801.001524,60.7239367 799.676027,60.7239367 C798.350609,60.7239367 797.276063,59.6494708 797.276063,58.3239732 C797.276063,56.9984757 798.350609,55.9239304 799.676027,55.9239304 Z" id="Instagram-grayscale-dark-mode"></path>
        </g>
    </g>
</svg>