<?xml version="1.0" encoding="UTF-8"?>
<svg width="40px" height="40px" viewBox="0 0 40 40" version="1.1" xmlns="http://www.w3.org/2000/svg" xmlns:xlink="http://www.w3.org/1999/xlink">
    <!-- Generator: Sketch 57.1 (83088) - https://sketch.com -->
    <title>Instagram-grayscale-color</title>
    <desc>Created with Sketch.</desc>
    <g id="Icons" stroke="none" stroke-width="1" fill="none" fill-rule="evenodd">
        <g id="Black" transform="translate(-1000.000000, -38.000000)" fill="#CACACA">
            <path d="M1021.39751,38.000639 C1025.57095,38.0049264 1026.3112,38.0320773 1028.24597,38.1203554 C1030.37474,38.2174496 1031.82861,38.5555721 1033.10076,39.0500138 C1034.41594,39.561048 1035.53129,40.2449146 1036.64323,41.3567733 C1037.75509,42.4687114 1038.43895,43.5840632 1038.95007,44.89924 C1039.44443,46.1713874 1039.78255,47.6252588 1039.87964,49.7540256 C1039.97698,51.8872382 1040,52.5683261 1040,58.0000397 C1040,63.4316739 1039.97698,64.1127618 1039.87964,66.2459744 C1039.78255,68.3747412 1039.44443,69.8286126 1038.95007,71.10076 C1038.43895,72.4159368 1037.75509,73.5312886 1036.64323,74.6432267 C1035.53129,75.7550854 1034.41594,76.438952 1033.10076,76.9500656 C1031.82861,77.4444279 1030.37474,77.7825504 1028.24597,77.8796446 C1026.11276,77.9769769 1025.43167,78 1020.00004,78 C1014.56833,78 1013.88724,77.9769769 1011.75403,77.8796446 C1009.62526,77.7825504 1008.17139,77.4444279 1006.89924,76.9500656 C1005.58406,76.438952 1004.46871,75.7550854 1003.35677,74.6432267 C1002.24491,73.5312886 1001.56105,72.4159368 1001.05001,71.10076 C1000.55557,69.8286126 1000.21745,68.3747412 1000.12036,66.2459744 C1000.03208,64.3112002 1000.00493,63.5709536 1000.00064,59.3975134 L1000.00064,56.6025458 C1000.00493,52.4290464 1000.03208,51.6887998 1000.12036,49.7540256 C1000.21745,47.6252588 1000.55557,46.1713874 1001.05001,44.89924 C1001.56105,43.5840632 1002.24491,42.4687114 1003.35677,41.3567733 C1004.46871,40.2449146 1005.58406,39.561048 1006.89924,39.0500138 C1008.17139,38.5555721 1009.62526,38.2174496 1011.75403,38.1203554 C1013.63017,38.0347524 1014.38309,38.006628 1018.23247,38.0010928 L1018.60255,38.000639 L1021.39751,38.000639 Z M1021.07456,41.6039297 L1018.9255,41.6039297 C1014.56188,41.6068987 1013.87657,41.6308733 1011.91828,41.7202213 C1009.9683,41.8091382 1008.90932,42.1349553 1008.20457,42.4088512 C1007.27102,42.7716641 1006.60478,43.2050548 1005.90496,43.9049581 C1005.20505,44.6047821 1004.77166,45.271024 1004.40885,46.2045725 C1004.13496,46.9093186 1003.80914,47.9683035 1003.72022,49.9182837 C1003.63087,51.8765659 1003.6069,52.5618826 1003.60393,56.9255017 L1003.60393,59.0745619 C1003.6069,63.4381174 1003.63087,64.1234341 1003.72022,66.0817163 C1003.80914,68.0316965 1004.13496,69.0906814 1004.40885,69.7954275 C1004.77166,70.728976 1005.20513,71.3952179 1005.90496,72.0950419 C1006.60478,72.7949452 1007.27102,73.2283359 1008.20457,73.5911488 C1008.90932,73.8650447 1009.9683,74.1908618 1011.91828,74.2797787 C1013.87634,74.3691267 1014.56151,74.3931013 1018.92542,74.3960703 L1021.07464,74.3960703 C1025.4385,74.3931013 1026.12373,74.3691267 1028.08172,74.2797787 C1030.0317,74.1908618 1031.09068,73.8650447 1031.79543,73.5911488 C1032.72898,73.2283359 1033.39522,72.7949452 1034.09504,72.0950419 C1034.79495,71.3952179 1035.22834,70.728976 1035.59115,69.7954275 C1035.86504,69.0906814 1036.19086,68.0316965 1036.27978,66.0817163 C1036.36913,64.1234341 1036.3931,63.4381174 1036.39607,59.0745619 L1036.39607,56.9255017 C1036.3931,52.5618826 1036.36913,51.8765659 1036.27978,49.9182837 C1036.19086,47.9683035 1035.86504,46.9093186 1035.59115,46.2045725 C1035.22834,45.271024 1034.79495,44.6047821 1034.09504,43.9049581 C1033.39522,43.2050548 1032.72898,42.7716641 1031.79543,42.4088512 C1031.09068,42.1349553 1030.0317,41.8091382 1028.08172,41.7202213 C1026.12343,41.6308733 1025.43812,41.6068987 1021.07456,41.6039297 Z M1020.00004,47.7297362 C1025.67215,47.7297362 1030.27026,52.3278534 1030.27026,58.0000397 C1030.27026,63.6721466 1025.67215,68.2702638 1020.00004,68.2702638 C1014.32785,68.2702638 1009.72974,63.6721466 1009.72974,58.0000397 C1009.72974,52.3278534 1014.32785,47.7297362 1020.00004,47.7297362 Z M1020.00004,51.3333333 C1016.31808,51.3333333 1013.33333,54.3180845 1013.33333,58.0000397 C1013.33333,61.6819155 1016.31808,64.6666667 1020.00004,64.6666667 C1023.68192,64.6666667 1026.66667,61.6819155 1026.66667,58.0000397 C1026.66667,54.3180845 1023.68192,51.3333333 1020.00004,51.3333333 Z M1030.67603,44.9239304 C1032.00152,44.9239304 1033.07607,45.9984757 1033.07607,47.3239732 C1033.07607,48.6494708 1032.00152,49.7239367 1030.67603,49.7239367 C1029.35061,49.7239367 1028.27606,48.6494708 1028.27606,47.3239732 C1028.27606,45.9984757 1029.35061,44.9239304 1030.67603,44.9239304 Z" id="Instagram-grayscale"></path>
        </g>
    </g>
</svg>