<?xml version="1.0" encoding="UTF-8"?>
<svg width="44px" height="40px" viewBox="0 0 44 40" version="1.1" xmlns="http://www.w3.org/2000/svg" xmlns:xlink="http://www.w3.org/1999/xlink">
    <!-- Generator: Sketch 57.1 (83088) - https://sketch.com -->
    <title>LinkedIn-grayscale-dark-mode-color</title>
    <desc>Created with Sketch.</desc>
    <g id="Icons" stroke="none" stroke-width="1" fill="none" fill-rule="evenodd">
        <g id="Black" transform="translate(-715.000000, -48.000000)" fill="#FFFFFF">
            <path d="M759,88 L749.2754,88 L749.2754,73.9384005 C749.2754,70.257796 747.754233,67.7451495 744.409219,67.7451495 C741.850659,67.7451495 740.427799,69.4407377 739.765522,71.0748543 C739.517168,71.6613946 739.555974,72.478453 739.555974,73.2955113 L739.555974,88 L729.921919,88 C729.921919,88 730.046096,63.0912467 729.921919,60.8270474 L739.555974,60.8270474 L739.555974,65.0916309 C740.125118,63.2269962 743.203669,60.5657937 748.116416,60.5657937 C754.21143,60.5657937 759,64.4743549 759,72.8908241 L759,88 L759,88 Z M720.17921,57.4281872 L720.117121,57.4281872 C717.0127,57.4281872 715,55.3509637 715,52.7179356 C715,50.0336812 717.072201,48 720.238711,48 C723.402634,48 725.348071,50.0285586 725.41016,52.7102516 C725.41016,55.3432798 723.402634,57.4281872 720.17921,57.4281872 L720.17921,57.4281872 L720.17921,57.4281872 Z M716.109831,60.8270474 L724.685795,60.8270474 L724.685795,88 L716.109831,88 L716.109831,60.8270474 L716.109831,60.8270474 Z" id="LinkedIn-grayscale-dark-mode"></path>
        </g>
    </g>
</svg>