<?xml version="1.0" encoding="UTF-8"?>
<svg width="44px" height="40px" viewBox="0 0 44 40" version="1.1" xmlns="http://www.w3.org/2000/svg" xmlns:xlink="http://www.w3.org/1999/xlink">
    <!-- Generator: Sketch 57.1 (83088) - https://sketch.com -->
    <title>LinkedIn-colored-color</title>
    <desc>Created with Sketch.</desc>
    <g id="Icons" stroke="none" stroke-width="1" fill="none" fill-rule="evenodd">
        <g id="Black" transform="translate(-452.000000, -57.000000)" fill="#007EBB">
            <path d="M496,97 L486.2754,97 L486.2754,82.9384005 C486.2754,79.257796 484.754233,76.7451495 481.409219,76.7451495 C478.850659,76.7451495 477.427799,78.4407377 476.765522,80.0748543 C476.517168,80.6613946 476.555974,81.478453 476.555974,82.2955113 L476.555974,97 L466.921919,97 C466.921919,97 467.046096,72.0912467 466.921919,69.8270474 L476.555974,69.8270474 L476.555974,74.0916309 C477.125118,72.2269962 480.203669,69.5657937 485.116416,69.5657937 C491.21143,69.5657937 496,73.4743549 496,81.8908241 L496,97 L496,97 Z M457.17921,66.4281872 L457.117121,66.4281872 C454.0127,66.4281872 452,64.3509637 452,61.7179356 C452,59.0336812 454.072201,57 457.238711,57 C460.402634,57 462.348071,59.0285586 462.41016,61.7102516 C462.41016,64.3432798 460.402634,66.4281872 457.17921,66.4281872 L457.17921,66.4281872 L457.17921,66.4281872 Z M453.109831,69.8270474 L461.685795,69.8270474 L461.685795,97 L453.109831,97 L453.109831,69.8270474 L453.109831,69.8270474 Z" id="LinkedIn-colored"></path>
        </g>
    </g>
</svg>