<?xml version="1.0" encoding="UTF-8"?>
<svg width="44px" height="40px" viewBox="0 0 44 40" version="1.1" xmlns="http://www.w3.org/2000/svg" xmlns:xlink="http://www.w3.org/1999/xlink">
    <!-- Generator: Sketch 57.1 (83088) - https://sketch.com -->
    <title>LinkedIn-grayscale-color</title>
    <desc>Created with Sketch.</desc>
    <g id="Icons" stroke="none" stroke-width="1" fill="none" fill-rule="evenodd">
        <g id="Black" transform="translate(-946.000000, -37.000000)" fill="#CACACA">
            <path d="M990,77 L980.2754,77 L980.2754,62.9384005 C980.2754,59.257796 978.754233,56.7451495 975.409219,56.7451495 C972.850659,56.7451495 971.427799,58.4407377 970.765522,60.0748543 C970.517168,60.6613946 970.555974,61.478453 970.555974,62.2955113 L970.555974,77 L960.921919,77 C960.921919,77 961.046096,52.0912467 960.921919,49.8270474 L970.555974,49.8270474 L970.555974,54.0916309 C971.125118,52.2269962 974.203669,49.5657937 979.116416,49.5657937 C985.21143,49.5657937 990,53.4743549 990,61.8908241 L990,77 L990,77 Z M951.17921,46.4281872 L951.117121,46.4281872 C948.0127,46.4281872 946,44.3509637 946,41.7179356 C946,39.0336812 948.072201,37 951.238711,37 C954.402634,37 956.348071,39.0285586 956.41016,41.7102516 C956.41016,44.3432798 954.402634,46.4281872 951.17921,46.4281872 L951.17921,46.4281872 L951.17921,46.4281872 Z M947.109831,49.8270474 L955.685795,49.8270474 L955.685795,77 L947.109831,77 L947.109831,49.8270474 L947.109831,49.8270474 Z" id="LinkedIn-grayscale"></path>
        </g>
    </g>
</svg>