<?xml version="1.0" encoding="UTF-8"?>
<svg width="40px" height="40px" viewBox="0 0 40 40" version="1.1" xmlns="http://www.w3.org/2000/svg" xmlns:xlink="http://www.w3.org/1999/xlink">
    <!-- Generator: Sketch 57.1 (83088) - https://sketch.com -->
    <title>Spotify-colored</title>
    <desc>Created with Sketch.</desc>
    <g id="Icons" stroke="none" stroke-width="1" fill="none" fill-rule="evenodd">
        <g id="Black" transform="translate(-404.000000, -59.000000)">
            <g id="Spotify-colored" transform="translate(404.000000, 59.000000)">
                <ellipse id="Oval" fill="#FFFFFF" cx="19.5" cy="19.5" rx="17.5" ry="16.5"></ellipse>
                <path d="M31.8,17.8 C25.4,14 14.7,13.6 8.6,15.5 C7.6,15.8 6.6,15.2 6.3,14.3 C6,13.3 6.6,12.3 7.5,12 C14.6,9.9 26.3,10.3 33.7,14.7 C34.6,15.2 34.9,16.4 34.4,17.3 C33.9,18 32.7,18.3 31.8,17.8 M31.6,23.4 C31.1,24.1 30.2,24.4 29.5,23.9 C24.1,20.6 15.9,19.6 9.6,21.6 C8.8,21.8 7.9,21.4 7.7,20.6 C7.5,19.8 7.9,18.9 8.7,18.7 C16,16.5 25,17.6 31.2,21.4 C31.8,21.7 32.1,22.7 31.6,23.4 M29.2,28.9 C28.8,29.5 28.1,29.7 27.5,29.3 C22.8,26.4 16.9,25.8 9.9,27.4 C9.2,27.6 8.6,27.1 8.4,26.5 C8.2,25.8 8.7,25.2 9.3,25 C16.9,23.3 23.5,24 28.7,27.2 C29.4,27.5 29.5,28.3 29.2,28.9 M20,-3.55271368e-15 C9,-3.55271368e-15 0,9 0,20 C0,31 9,40 20,40 C31,40 40,31 40,20 C40,9 31.1,-3.55271368e-15 20,-3.55271368e-15" fill="#00DA5A"></path>
            </g>
        </g>
    </g>
</svg>