<?xml version="1.0" encoding="UTF-8"?>
<svg width="40px" height="40px" viewBox="0 0 40 40" version="1.1" xmlns="http://www.w3.org/2000/svg" xmlns:xlink="http://www.w3.org/1999/xlink">
    <!-- Generator: Sketch 57.1 (83088) - https://sketch.com -->
    <title>Spotify-grayscale-color</title>
    <desc>Created with Sketch.</desc>
    <g id="Icons" stroke="none" stroke-width="1" fill="none" fill-rule="evenodd">
        <g id="Black" transform="translate(-898.000000, -39.000000)" fill="#CACACA">
            <path d="M929.8,56.8 C923.4,53 912.7,52.6 906.6,54.5 C905.6,54.8 904.6,54.2 904.3,53.3 C904,52.3 904.6,51.3 905.5,51 C912.6,48.9 924.3,49.3 931.7,53.7 C932.6,54.2 932.9,55.4 932.4,56.3 C931.9,57 930.7,57.3 929.8,56.8 M929.6,62.4 C929.1,63.1 928.2,63.4 927.5,62.9 C922.1,59.6 913.9,58.6 907.6,60.6 C906.8,60.8 905.9,60.4 905.7,59.6 C905.5,58.8 905.9,57.9 906.7,57.7 C914,55.5 923,56.6 929.2,60.4 C929.8,60.7 930.1,61.7 929.6,62.4 M927.2,67.9 C926.8,68.5 926.1,68.7 925.5,68.3 C920.8,65.4 914.9,64.8 907.9,66.4 C907.2,66.6 906.6,66.1 906.4,65.5 C906.2,64.8 906.7,64.2 907.3,64 C914.9,62.3 921.5,63 926.7,66.2 C927.4,66.5 927.5,67.3 927.2,67.9 M918,39 C907,39 898,48 898,59 C898,70 907,79 918,79 C929,79 938,70 938,59 C938,48 929.1,39 918,39" id="Spotify-grayscale"></path>
        </g>
    </g>
</svg>