<?xml version="1.0" encoding="UTF-8"?>
<svg width="40px" height="40px" viewBox="0 0 40 40" version="1.1" xmlns="http://www.w3.org/2000/svg" xmlns:xlink="http://www.w3.org/1999/xlink">
    <!-- Generator: Sketch 57.1 (83088) - https://sketch.com -->
    <title>Spotify-grayscale-dark-mode-color</title>
    <desc>Created with Sketch.</desc>
    <g id="Icons" stroke="none" stroke-width="1" fill="none" fill-rule="evenodd">
        <g id="Black" transform="translate(-667.000000, -50.000000)" fill="#FFFFFF">
            <path d="M698.8,67.8 C692.4,64 681.7,63.6 675.6,65.5 C674.6,65.8 673.6,65.2 673.3,64.3 C673,63.3 673.6,62.3 674.5,62 C681.6,59.9 693.3,60.3 700.7,64.7 C701.6,65.2 701.9,66.4 701.4,67.3 C700.9,68 699.7,68.3 698.8,67.8 M698.6,73.4 C698.1,74.1 697.2,74.4 696.5,73.9 C691.1,70.6 682.9,69.6 676.6,71.6 C675.8,71.8 674.9,71.4 674.7,70.6 C674.5,69.8 674.9,68.9 675.7,68.7 C683,66.5 692,67.6 698.2,71.4 C698.8,71.7 699.1,72.7 698.6,73.4 M696.2,78.9 C695.8,79.5 695.1,79.7 694.5,79.3 C689.8,76.4 683.9,75.8 676.9,77.4 C676.2,77.6 675.6,77.1 675.4,76.5 C675.2,75.8 675.7,75.2 676.3,75 C683.9,73.3 690.5,74 695.7,77.2 C696.4,77.5 696.5,78.3 696.2,78.9 M687,50 C676,50 667,59 667,70 C667,81 676,90 687,90 C698,90 707,81 707,70 C707,59 698.1,50 687,50" id="Spotify-grayscale-dark-mode"></path>
        </g>
    </g>
</svg>