<?xml version="1.0" encoding="UTF-8"?>
<svg width="48px" height="34px" viewBox="0 0 48 34" version="1.1" xmlns="http://www.w3.org/2000/svg" xmlns:xlink="http://www.w3.org/1999/xlink">
    <!-- Generator: Sketch 57.1 (83088) - https://sketch.com -->
    <title>Youtube-grayscale-dark-mode-color</title>
    <desc>Created with Sketch.</desc>
    <g id="Icons" stroke="none" stroke-width="1" fill="none" fill-rule="evenodd">
        <g id="Black" transform="translate(-592.000000, -94.000000)" fill="#FFFFFF">
            <path d="M611.044,117.269916 L611.0425,103.687742 L624.0115,110.502244 L611.044,117.269916 Z M639.52,101.334163 C639.52,101.334163 639.0505,98.003199 637.612,96.5363665 C635.7865,94.610299 633.7405,94.6012352 632.803,94.4894477 C626.086,94 616.0105,94 616.0105,94 L615.9895,94 C615.9895,94 605.914,94 599.197,94.4894477 C598.258,94.6012352 596.2135,94.610299 594.3865,96.5363665 C592.948,98.003199 592.48,101.334163 592.48,101.334163 C592.48,101.334163 592,105.246723 592,109.157773 L592,112.82561 C592,116.73817 592.48,120.64922 592.48,120.64922 C592.48,120.64922 592.948,123.980184 594.3865,125.447016 C596.2135,127.373084 598.612,127.312658 599.68,127.513574 C603.52,127.885191 616,128 616,128 C616,128 626.086,127.984894 632.803,127.495446 C633.7405,127.382148 635.7865,127.373084 637.612,125.447016 C639.0505,123.980184 639.52,120.64922 639.52,120.64922 C639.52,120.64922 640,116.73817 640,112.82561 L640,109.157773 C640,105.246723 639.52,101.334163 639.52,101.334163 L639.52,101.334163 Z" id="Youtube-grayscale-dark-mode"></path>
        </g>
    </g>
</svg>