<?xml version="1.0" encoding="UTF-8"?>
<svg width="48px" height="34px" viewBox="0 0 48 34" version="1.1" xmlns="http://www.w3.org/2000/svg" xmlns:xlink="http://www.w3.org/1999/xlink">
    <!-- Generator: Sketch 57.1 (83088) - https://sketch.com -->
    <title>Youtube-grayscale-color</title>
    <desc>Created with Sketch.</desc>
    <g id="Icons" stroke="none" stroke-width="1" fill="none" fill-rule="evenodd">
        <g id="Black" transform="translate(-859.000000, -90.000000)" fill="#CACACA">
            <path d="M878.044,113.269916 L878.0425,99.6877416 L891.0115,106.502244 L878.044,113.269916 Z M906.52,97.3341627 C906.52,97.3341627 906.0505,94.003199 904.612,92.5363665 C902.7865,90.610299 900.7405,90.6012352 899.803,90.4894477 C893.086,90 883.0105,90 883.0105,90 L882.9895,90 C882.9895,90 872.914,90 866.197,90.4894477 C865.258,90.6012352 863.2135,90.610299 861.3865,92.5363665 C859.948,94.003199 859.48,97.3341627 859.48,97.3341627 C859.48,97.3341627 859,101.246723 859,105.157773 L859,108.82561 C859,112.73817 859.48,116.64922 859.48,116.64922 C859.48,116.64922 859.948,119.980184 861.3865,121.447016 C863.2135,123.373084 865.612,123.312658 866.68,123.513574 C870.52,123.885191 883,124 883,124 C883,124 893.086,123.984894 899.803,123.495446 C900.7405,123.382148 902.7865,123.373084 904.612,121.447016 C906.0505,119.980184 906.52,116.64922 906.52,116.64922 C906.52,116.64922 907,112.73817 907,108.82561 L907,105.157773 C907,101.246723 906.52,97.3341627 906.52,97.3341627 L906.52,97.3341627 Z" id="Youtube-grayscale"></path>
        </g>
    </g>
</svg>